<svg xmlns="http://www.w3.org/2000/svg" xmlns:xlink="http://www.w3.org/1999/xlink" width="346" zoomAndPan="magnify" viewBox="0 0 259.5 166.499995" height="222" preserveAspectRatio="xMidYMid meet" version="1.0"><defs><g/></defs><g fill="#ffa888" fill-opacity="1"><g transform="translate(31.456284, 44.683809)"><g><path d="M 1.234375 0 L 1.234375 -0.957031 L 1.691406 -1.09375 C 2.050781 -1.207031 2.300781 -1.441406 2.433594 -1.808594 C 2.617188 -2.300781 2.707031 -3.257812 2.707031 -4.675781 L 2.707031 -21.101562 C 2.707031 -22.546875 2.617188 -23.507812 2.433594 -23.984375 C 2.300781 -24.339844 2.054688 -24.574219 1.691406 -24.683594 L 1.234375 -24.824219 L 1.234375 -26.421875 L 8.488281 -26.421875 L 8.488281 -24.824219 L 8.03125 -24.683594 C 7.667969 -24.574219 7.421875 -24.339844 7.285156 -23.984375 C 7.105469 -23.507812 7.015625 -22.546875 7.015625 -21.101562 L 7.015625 -11.746094 L 6.371094 -11.746094 L 5.910156 -12.199219 L 15.558594 -22.066406 C 16.636719 -23.191406 17.253906 -24.015625 17.410156 -24.542969 C 17.433594 -24.621094 17.441406 -24.683594 17.4375 -24.730469 C 17.4375 -24.734375 17.4375 -24.738281 17.4375 -24.738281 C 17.4375 -24.734375 17.441406 -24.726562 17.445312 -24.722656 L 17.449219 -24.71875 C 17.441406 -24.726562 17.425781 -24.734375 17.410156 -24.742188 C 17.347656 -24.769531 17.261719 -24.792969 17.148438 -24.808594 L 16.589844 -24.886719 L 16.589844 -26.421875 L 23 -26.421875 L 23 -24.816406 L 22.535156 -24.679688 C 21.96875 -24.515625 21.304688 -24.273438 20.542969 -23.953125 C 19.835938 -23.652344 18.984375 -22.996094 17.992188 -21.976562 L 10.148438 -13.949219 L 9.683594 -14.398438 L 9.65625 -15.042969 L 10.503906 -15.082031 L 10.53125 -14.4375 L 10.488281 -15.078125 C 11.933594 -15.183594 13.128906 -15.109375 14.070312 -14.855469 C 15.058594 -14.589844 15.882812 -14.109375 16.542969 -13.40625 C 17.167969 -12.742188 17.746094 -11.851562 18.277344 -10.734375 C 18.789062 -9.667969 19.351562 -8.339844 19.972656 -6.753906 C 20.601562 -5.199219 21.125 -3.992188 21.535156 -3.132812 C 21.917969 -2.332031 22.261719 -1.785156 22.5625 -1.496094 C 22.792969 -1.273438 23.019531 -1.160156 23.238281 -1.160156 L 23.570312 -1.160156 C 23.613281 -1.160156 23.660156 -1.164062 23.707031 -1.175781 L 24.507812 -1.378906 L 24.507812 0.402344 L 24.054688 0.542969 C 23.691406 0.652344 23.300781 0.730469 22.875 0.769531 C 22.476562 0.808594 22.066406 0.828125 21.652344 0.828125 C 20.632812 0.828125 19.796875 0.597656 19.148438 0.140625 C 18.515625 -0.304688 17.964844 -1.011719 17.484375 -1.980469 C 17.050781 -2.863281 16.535156 -4.023438 15.941406 -5.460938 L 14.375 -9.273438 C 13.960938 -10.273438 13.546875 -11.074219 13.132812 -11.675781 C 12.753906 -12.21875 12.324219 -12.609375 11.835938 -12.84375 C 11.339844 -13.078125 10.679688 -13.1875 9.851562 -13.164062 L 9.097656 -13.164062 L 9.097656 -13.808594 L 9.558594 -13.359375 L 6.832031 -10.5625 L 6.371094 -11.011719 L 7.015625 -11.011719 L 7.015625 -4.675781 C 7.015625 -3.257812 7.105469 -2.300781 7.289062 -1.808594 C 7.421875 -1.441406 7.671875 -1.207031 8.03125 -1.09375 L 8.488281 -0.957031 L 8.488281 0.644531 L 1.234375 0.644531 Z M 2.523438 0 L 1.878906 0 L 1.878906 -0.644531 L 7.84375 -0.644531 L 7.84375 0 L 7.199219 0 L 7.199219 -0.480469 L 7.84375 -0.480469 L 7.65625 0.136719 C 6.886719 -0.0976562 6.363281 -0.59375 6.078125 -1.359375 C 5.84375 -1.996094 5.726562 -3.101562 5.726562 -4.675781 L 5.726562 -11.273438 L 8.824219 -14.453125 L 9.832031 -14.453125 L 9.832031 -13.808594 L 9.816406 -14.453125 C 10.851562 -14.480469 11.710938 -14.332031 12.394531 -14.003906 C 13.085938 -13.671875 13.6875 -13.140625 14.191406 -12.410156 C 14.660156 -11.734375 15.117188 -10.851562 15.566406 -9.765625 L 17.128906 -5.953125 C 17.714844 -4.542969 18.21875 -3.410156 18.640625 -2.550781 C 19.023438 -1.777344 19.4375 -1.230469 19.890625 -0.914062 C 20.316406 -0.613281 20.90625 -0.460938 21.652344 -0.460938 C 22.027344 -0.460938 22.390625 -0.476562 22.753906 -0.511719 C 23.089844 -0.546875 23.398438 -0.605469 23.675781 -0.691406 L 23.863281 -0.0742188 L 23.21875 -0.0742188 L 23.21875 -0.550781 L 23.863281 -0.550781 L 24.019531 0.0742188 C 23.871094 0.109375 23.71875 0.128906 23.570312 0.128906 L 23.238281 0.128906 C 22.671875 0.128906 22.148438 -0.101562 21.667969 -0.566406 C 21.253906 -0.964844 20.824219 -1.632812 20.375 -2.574219 C 19.949219 -3.460938 19.414062 -4.695312 18.769531 -6.285156 C 18.164062 -7.839844 17.609375 -9.140625 17.113281 -10.179688 C 16.640625 -11.175781 16.136719 -11.957031 15.605469 -12.523438 C 15.113281 -13.046875 14.488281 -13.410156 13.734375 -13.609375 C 12.933594 -13.824219 11.882812 -13.886719 10.578125 -13.792969 L 10.570312 -13.792969 L 8.085938 -13.683594 L 17.070312 -22.878906 C 18.183594 -24.019531 19.175781 -24.773438 20.042969 -25.140625 C 20.847656 -25.480469 21.558594 -25.738281 22.171875 -25.917969 L 22.355469 -25.300781 L 21.710938 -25.300781 L 21.710938 -25.777344 L 22.355469 -25.777344 L 22.355469 -25.132812 L 17.234375 -25.132812 L 17.234375 -25.777344 L 17.878906 -25.777344 L 17.878906 -25.449219 L 17.234375 -25.449219 L 17.324219 -26.085938 C 17.859375 -26.011719 18.25 -25.808594 18.488281 -25.480469 C 18.746094 -25.128906 18.796875 -24.695312 18.644531 -24.179688 C 18.429688 -23.453125 17.710938 -22.449219 16.480469 -21.167969 L 5.726562 -10.167969 L 5.726562 -21.101562 C 5.726562 -22.703125 5.84375 -23.816406 6.082031 -24.441406 C 6.363281 -25.191406 6.890625 -25.683594 7.65625 -25.917969 L 7.84375 -25.300781 L 7.199219 -25.300781 L 7.199219 -25.777344 L 7.84375 -25.777344 L 7.84375 -25.132812 L 1.878906 -25.132812 L 1.878906 -25.777344 L 2.523438 -25.777344 L 2.523438 -25.300781 L 1.878906 -25.300781 L 2.066406 -25.917969 C 2.832031 -25.683594 3.359375 -25.191406 3.640625 -24.441406 C 3.878906 -23.816406 3.996094 -22.703125 3.996094 -21.101562 L 3.996094 -4.675781 C 3.996094 -3.101562 3.878906 -1.996094 3.644531 -1.359375 C 3.359375 -0.59375 2.835938 -0.0976562 2.066406 0.136719 L 1.878906 -0.480469 L 2.523438 -0.480469 Z M 2.523438 0 "/></g></g></g><g fill="#ffa888" fill-opacity="1"><g transform="translate(62.281244, 44.683809)"><g><path d="M 1.234375 0 L 1.234375 -0.957031 L 1.691406 -1.09375 C 2.050781 -1.207031 2.300781 -1.441406 2.433594 -1.808594 C 2.617188 -2.300781 2.707031 -3.257812 2.707031 -4.675781 L 2.707031 -21.101562 C 2.707031 -22.546875 2.617188 -23.507812 2.433594 -23.984375 C 2.300781 -24.339844 2.054688 -24.574219 1.691406 -24.683594 L 1.234375 -24.824219 L 1.234375 -26.421875 L 19.59375 -26.421875 L 20.09375 -20.511719 L 18.613281 -20.105469 L 18.402344 -20.644531 C 17.820312 -22.121094 17.027344 -23.144531 16.019531 -23.707031 C 14.972656 -24.289062 13.5625 -24.582031 11.785156 -24.582031 L 6.371094 -24.582031 L 6.371094 -25.226562 L 7.015625 -25.226562 L 7.015625 -14.066406 L 6.371094 -14.066406 L 6.371094 -14.710938 L 11.085938 -14.710938 C 12.433594 -14.710938 13.46875 -14.796875 14.195312 -14.972656 C 14.84375 -15.125 15.300781 -15.34375 15.566406 -15.632812 C 15.851562 -15.933594 16.050781 -16.304688 16.171875 -16.742188 L 16.300781 -17.214844 L 17.878906 -17.214844 L 17.878906 -10.367188 L 16.296875 -10.367188 L 16.167969 -10.847656 C 16.050781 -11.304688 15.851562 -11.675781 15.574219 -11.960938 C 15.304688 -12.242188 14.847656 -12.457031 14.195312 -12.613281 C 13.46875 -12.785156 12.433594 -12.871094 11.085938 -12.871094 L 6.371094 -12.871094 L 6.371094 -13.515625 L 7.015625 -13.515625 L 7.015625 -2.210938 C 7.015625 -1.835938 7.089844 -1.574219 7.242188 -1.421875 C 7.390625 -1.273438 7.652344 -1.195312 8.027344 -1.195312 L 12.816406 -1.195312 C 14.476562 -1.195312 15.835938 -1.480469 16.894531 -2.042969 C 17.90625 -2.582031 18.714844 -3.632812 19.320312 -5.203125 L 19.515625 -5.703125 L 21.007812 -5.429688 L 20.640625 0.644531 L 1.234375 0.644531 Z M 2.523438 0 L 1.878906 0 L 1.878906 -0.644531 L 20.035156 -0.644531 L 20.035156 0 L 19.390625 -0.0390625 L 19.683594 -4.9375 L 20.328125 -4.898438 L 20.214844 -4.265625 L 19.808594 -4.335938 L 19.921875 -4.972656 L 20.523438 -4.738281 C 19.804688 -2.871094 18.796875 -1.59375 17.5 -0.902344 C 16.253906 -0.238281 14.691406 0.09375 12.816406 0.09375 L 8.027344 0.09375 C 7.296875 0.09375 6.730469 -0.109375 6.328125 -0.511719 C 5.925781 -0.914062 5.726562 -1.480469 5.726562 -2.210938 L 5.726562 -14.160156 L 11.085938 -14.160156 C 12.535156 -14.160156 13.671875 -14.0625 14.492188 -13.867188 C 15.390625 -13.652344 16.058594 -13.316406 16.5 -12.859375 C 16.9375 -12.410156 17.242188 -11.847656 17.417969 -11.175781 L 16.792969 -11.011719 L 16.792969 -11.65625 L 17.234375 -11.65625 L 17.234375 -11.011719 L 16.589844 -11.011719 L 16.589844 -16.570312 L 17.234375 -16.570312 L 17.234375 -15.925781 L 16.792969 -15.925781 L 16.792969 -16.570312 L 17.414062 -16.402344 C 17.238281 -15.757812 16.9375 -15.210938 16.507812 -14.75 C 16.0625 -14.277344 15.394531 -13.929688 14.492188 -13.71875 C 13.671875 -13.519531 12.535156 -13.421875 11.085938 -13.421875 L 5.726562 -13.421875 L 5.726562 -25.871094 L 11.785156 -25.871094 C 13.785156 -25.871094 15.40625 -25.523438 16.648438 -24.832031 C 17.921875 -24.117188 18.90625 -22.878906 19.601562 -21.117188 L 19.003906 -20.878906 L 18.832031 -21.503906 L 19.238281 -21.613281 L 19.40625 -20.992188 L 18.765625 -20.9375 L 18.359375 -25.722656 L 19.003906 -25.777344 L 19.003906 -25.132812 L 1.878906 -25.132812 L 1.878906 -25.777344 L 2.523438 -25.777344 L 2.523438 -25.300781 L 1.878906 -25.300781 L 2.066406 -25.917969 C 2.832031 -25.683594 3.359375 -25.191406 3.640625 -24.441406 C 3.878906 -23.816406 3.996094 -22.703125 3.996094 -21.101562 L 3.996094 -4.675781 C 3.996094 -3.101562 3.878906 -1.996094 3.644531 -1.359375 C 3.359375 -0.59375 2.835938 -0.0976562 2.066406 0.136719 L 1.878906 -0.480469 L 2.523438 -0.480469 Z M 2.523438 0 "/></g></g></g><g fill="#ffa888" fill-opacity="1"><g transform="translate(91.228033, 44.683809)"><g><path d="M 1.234375 0 L 1.234375 -0.957031 L 1.691406 -1.09375 C 2.050781 -1.207031 2.300781 -1.441406 2.433594 -1.808594 C 2.617188 -2.300781 2.707031 -3.257812 2.707031 -4.675781 L 2.707031 -21.101562 C 2.707031 -22.546875 2.617188 -23.507812 2.433594 -23.984375 C 2.300781 -24.339844 2.054688 -24.574219 1.691406 -24.683594 L 1.234375 -24.824219 L 1.234375 -26.421875 L 8.488281 -26.421875 L 8.488281 -24.824219 L 8.03125 -24.683594 C 7.667969 -24.574219 7.421875 -24.339844 7.285156 -23.984375 C 7.105469 -23.507812 7.015625 -22.546875 7.015625 -21.101562 L 7.015625 -4.675781 C 7.015625 -3.257812 7.105469 -2.300781 7.289062 -1.808594 C 7.421875 -1.441406 7.671875 -1.207031 8.03125 -1.09375 L 8.488281 -0.957031 L 8.488281 0.644531 L 1.234375 0.644531 Z M 2.523438 0 L 1.878906 0 L 1.878906 -0.644531 L 7.84375 -0.644531 L 7.84375 0 L 7.199219 0 L 7.199219 -0.480469 L 7.84375 -0.480469 L 7.65625 0.136719 C 6.886719 -0.0976562 6.363281 -0.59375 6.078125 -1.359375 C 5.84375 -1.996094 5.726562 -3.101562 5.726562 -4.675781 L 5.726562 -21.101562 C 5.726562 -22.703125 5.84375 -23.816406 6.082031 -24.441406 C 6.363281 -25.191406 6.890625 -25.683594 7.65625 -25.917969 L 7.84375 -25.300781 L 7.199219 -25.300781 L 7.199219 -25.777344 L 7.84375 -25.777344 L 7.84375 -25.132812 L 1.878906 -25.132812 L 1.878906 -25.777344 L 2.523438 -25.777344 L 2.523438 -25.300781 L 1.878906 -25.300781 L 2.066406 -25.917969 C 2.832031 -25.683594 3.359375 -25.191406 3.640625 -24.441406 C 3.878906 -23.816406 3.996094 -22.703125 3.996094 -21.101562 L 3.996094 -4.675781 C 3.996094 -3.101562 3.878906 -1.996094 3.644531 -1.359375 C 3.359375 -0.59375 2.835938 -0.0976562 2.066406 0.136719 L 1.878906 -0.480469 L 2.523438 -0.480469 Z M 2.523438 0 "/></g></g></g><g fill="#ffa888" fill-opacity="1"><g transform="translate(108.206107, 44.683809)"><g><path d="M -1.269531 0 L -1.269531 -0.941406 L -0.828125 -1.089844 C -0.414062 -1.230469 0.00390625 -1.511719 0.421875 -1.941406 C 0.855469 -2.382812 1.335938 -3.265625 1.871094 -4.585938 L 9.125 -22.558594 L 9.722656 -22.316406 L 9.117188 -22.542969 C 9.277344 -22.960938 9.257812 -23.371094 9.066406 -23.769531 L 9.0625 -23.78125 L 8.476562 -25.148438 L 12.417969 -26.933594 L 21.734375 -4.554688 C 22.269531 -3.25 22.742188 -2.371094 23.144531 -1.921875 C 23.539062 -1.488281 23.886719 -1.203125 24.195312 -1.070312 L 24.582031 -0.898438 L 24.582031 0.644531 L 17.585938 0.644531 L 17.585938 -0.957031 L 18.042969 -1.09375 C 18.179688 -1.136719 18.265625 -1.183594 18.296875 -1.226562 C 18.3125 -1.246094 18.3125 -1.292969 18.296875 -1.367188 C 18.207031 -1.828125 17.875 -2.722656 17.304688 -4.054688 L 15.054688 -9.476562 L 15.652344 -9.722656 L 15.652344 -9.078125 L 5.265625 -9.078125 L 5.265625 -9.722656 L 5.863281 -9.480469 L 3.691406 -4.105469 C 3.265625 -3.039062 3.082031 -2.238281 3.144531 -1.703125 C 3.164062 -1.515625 3.214844 -1.378906 3.296875 -1.289062 C 3.375 -1.203125 3.496094 -1.144531 3.660156 -1.109375 L 4.179688 -1.007812 L 4.179688 0.644531 L -1.269531 0.644531 Z M 0.0195312 0 L -0.625 0 L -0.625 -0.644531 L 3.535156 -0.644531 L 3.535156 0 L 2.890625 0 L 2.890625 -0.480469 L 3.535156 -0.480469 L 3.410156 0.152344 C 2.960938 0.0625 2.605469 -0.128906 2.335938 -0.429688 C 2.074219 -0.722656 1.917969 -1.097656 1.863281 -1.554688 C 1.777344 -2.308594 1.988281 -3.320312 2.496094 -4.585938 L 4.832031 -10.367188 L 16.082031 -10.367188 L 18.492188 -4.5625 C 19.097656 -3.144531 19.453125 -2.164062 19.5625 -1.613281 C 19.644531 -1.1875 19.578125 -0.8125 19.359375 -0.496094 C 19.15625 -0.203125 18.84375 0.0078125 18.417969 0.136719 L 18.230469 -0.480469 L 18.875 -0.480469 L 18.875 0 L 18.230469 0 L 18.230469 -0.644531 L 23.9375 -0.644531 L 23.9375 0 L 23.292969 0 L 23.292969 -0.480469 L 23.9375 -0.480469 L 23.679688 0.113281 C 23.203125 -0.0976562 22.703125 -0.488281 22.1875 -1.058594 C 21.683594 -1.617188 21.136719 -2.617188 20.542969 -4.0625 L 11.484375 -25.824219 L 12.078125 -26.074219 L 12.34375 -25.488281 L 9.582031 -24.234375 L 9.316406 -24.820312 L 9.910156 -25.074219 L 10.242188 -24.300781 L 9.648438 -24.046875 L 10.230469 -24.324219 C 10.578125 -23.597656 10.609375 -22.851562 10.324219 -22.089844 L 10.324219 -22.082031 L 3.066406 -4.105469 C 2.46875 -2.625 1.894531 -1.605469 1.34375 -1.042969 C 0.78125 -0.464844 0.191406 -0.0703125 -0.421875 0.132812 L -0.625 -0.480469 L 0.0195312 -0.480469 Z M 5.488281 -10.917969 L 15.429688 -10.917969 L 15.429688 -10.273438 L 14.835938 -10.027344 L 9.789062 -22.144531 L 10.386719 -22.390625 L 10.984375 -22.148438 L 6.085938 -10.03125 L 5.488281 -10.273438 Z M 4.53125 -9.628906 L 10.375 -24.089844 L 16.398438 -9.628906 Z M 4.53125 -9.628906 "/></g></g></g><g fill="#ffa888" fill-opacity="1"><g transform="translate(139.067898, 44.683809)"><g><path d="M 20.625 0.902344 C 19.535156 0.902344 18.660156 0.625 18 0.0703125 C 17.386719 -0.445312 16.855469 -1.183594 16.410156 -2.140625 C 16.003906 -3.019531 15.527344 -4.101562 14.984375 -5.382812 C 14.441406 -6.667969 13.984375 -7.789062 13.613281 -8.753906 C 13.261719 -9.667969 12.886719 -10.421875 12.484375 -11.019531 C 12.117188 -11.5625 11.65625 -11.964844 11.101562 -12.234375 C 10.523438 -12.511719 9.734375 -12.648438 8.726562 -12.648438 L 6.371094 -12.648438 L 6.371094 -13.292969 L 7.015625 -13.292969 L 7.015625 -4.675781 C 7.015625 -3.257812 7.105469 -2.300781 7.289062 -1.808594 C 7.421875 -1.441406 7.671875 -1.207031 8.03125 -1.09375 L 8.488281 -0.957031 L 8.488281 0.644531 L 1.234375 0.644531 L 1.234375 -0.957031 L 1.691406 -1.09375 C 2.050781 -1.207031 2.300781 -1.441406 2.433594 -1.808594 C 2.617188 -2.300781 2.707031 -3.257812 2.707031 -4.675781 L 2.707031 -21.101562 C 2.707031 -22.546875 2.617188 -23.507812 2.433594 -23.984375 C 2.300781 -24.339844 2.054688 -24.574219 1.691406 -24.683594 L 1.234375 -24.824219 L 1.234375 -26.421875 L 9.132812 -26.421875 C 11.710938 -26.421875 13.738281 -26.160156 15.207031 -25.628906 C 16.738281 -25.078125 17.832031 -24.316406 18.488281 -23.339844 C 19.136719 -22.371094 19.464844 -21.269531 19.464844 -20.035156 C 19.464844 -18.136719 18.785156 -16.515625 17.429688 -15.175781 C 16.097656 -13.855469 14.152344 -13.050781 11.597656 -12.765625 L 11.527344 -13.40625 L 11.609375 -14.042969 C 12.8125 -13.886719 13.800781 -13.613281 14.578125 -13.226562 C 15.375 -12.828125 16.039062 -12.289062 16.566406 -11.609375 C 17.066406 -10.964844 17.511719 -10.1875 17.902344 -9.277344 C 18.273438 -8.410156 18.679688 -7.410156 19.125 -6.273438 C 19.707031 -4.820312 20.195312 -3.695312 20.59375 -2.902344 C 20.964844 -2.160156 21.296875 -1.648438 21.585938 -1.367188 C 21.804688 -1.15625 22.035156 -1.050781 22.28125 -1.050781 L 22.59375 -1.050781 C 22.625 -1.050781 22.667969 -1.054688 22.714844 -1.066406 L 23.515625 -1.265625 L 23.515625 0.453125 L 23.089844 0.605469 C 22.765625 0.722656 22.359375 0.804688 21.875 0.84375 C 21.425781 0.882812 21.007812 0.902344 20.625 0.902344 Z M 20.625 -0.386719 C 20.972656 -0.386719 21.355469 -0.40625 21.765625 -0.441406 C 22.136719 -0.472656 22.433594 -0.527344 22.648438 -0.605469 L 22.871094 0 L 22.226562 0 L 22.226562 -0.441406 L 22.871094 -0.441406 L 23.027344 0.183594 C 22.875 0.222656 22.730469 0.238281 22.59375 0.238281 L 22.28125 0.238281 C 21.691406 0.238281 21.160156 0.0117188 20.691406 -0.4375 C 20.292969 -0.820312 19.878906 -1.449219 19.4375 -2.328125 C 19.027344 -3.152344 18.519531 -4.3125 17.921875 -5.804688 C 17.484375 -6.925781 17.082031 -7.914062 16.714844 -8.769531 C 16.371094 -9.578125 15.980469 -10.261719 15.546875 -10.820312 C 15.140625 -11.34375 14.625 -11.761719 14 -12.074219 C 13.351562 -12.398438 12.5 -12.628906 11.445312 -12.765625 L 11.453125 -14.046875 C 13.710938 -14.300781 15.402344 -14.980469 16.523438 -16.089844 C 17.625 -17.179688 18.175781 -18.496094 18.175781 -20.035156 C 18.175781 -21.007812 17.921875 -21.871094 17.417969 -22.621094 C 16.917969 -23.363281 16.039062 -23.960938 14.769531 -24.417969 C 13.441406 -24.894531 11.5625 -25.132812 9.132812 -25.132812 L 1.878906 -25.132812 L 1.878906 -25.777344 L 2.523438 -25.777344 L 2.523438 -25.300781 L 1.878906 -25.300781 L 2.066406 -25.917969 C 2.832031 -25.683594 3.359375 -25.191406 3.640625 -24.441406 C 3.878906 -23.816406 3.996094 -22.703125 3.996094 -21.101562 L 3.996094 -4.675781 C 3.996094 -3.101562 3.878906 -1.996094 3.644531 -1.359375 C 3.359375 -0.59375 2.835938 -0.0976562 2.066406 0.136719 L 1.878906 -0.480469 L 2.523438 -0.480469 L 2.523438 0 L 1.878906 0 L 1.878906 -0.644531 L 7.84375 -0.644531 L 7.84375 0 L 7.199219 0 L 7.199219 -0.480469 L 7.84375 -0.480469 L 7.65625 0.136719 C 6.886719 -0.0976562 6.363281 -0.59375 6.078125 -1.359375 C 5.84375 -1.996094 5.726562 -3.101562 5.726562 -4.675781 L 5.726562 -13.9375 L 8.726562 -13.9375 C 9.929688 -13.9375 10.90625 -13.757812 11.660156 -13.398438 C 12.425781 -13.027344 13.058594 -12.472656 13.554688 -11.738281 C 14.011719 -11.0625 14.429688 -10.21875 14.816406 -9.21875 C 15.183594 -8.265625 15.632812 -7.15625 16.171875 -5.886719 C 16.707031 -4.617188 17.179688 -3.546875 17.582031 -2.683594 C 17.945312 -1.898438 18.359375 -1.308594 18.828125 -0.917969 C 19.25 -0.5625 19.847656 -0.386719 20.625 -0.386719 Z M 6.371094 -14.492188 L 9.464844 -14.492188 C 11.402344 -14.492188 12.816406 -14.925781 13.710938 -15.800781 C 14.597656 -16.667969 15.042969 -17.796875 15.042969 -19.1875 C 15.042969 -20.179688 14.820312 -21.082031 14.371094 -21.894531 C 13.929688 -22.683594 13.214844 -23.328125 12.21875 -23.820312 C 11.191406 -24.328125 9.816406 -24.582031 8.101562 -24.582031 C 7.839844 -24.582031 7.566406 -24.574219 7.28125 -24.5625 C 6.996094 -24.550781 6.710938 -24.535156 6.425781 -24.511719 L 6.371094 -25.152344 L 7.015625 -25.152344 L 7.015625 -13.847656 L 6.371094 -13.847656 Z M 5.726562 -13.203125 L 5.726562 -25.746094 L 6.316406 -25.796875 C 6.621094 -25.820312 6.925781 -25.839844 7.226562 -25.851562 C 7.53125 -25.863281 7.824219 -25.871094 8.101562 -25.871094 C 10.019531 -25.871094 11.582031 -25.574219 12.789062 -24.976562 C 14.027344 -24.363281 14.929688 -23.542969 15.496094 -22.519531 C 16.054688 -21.511719 16.332031 -20.402344 16.332031 -19.1875 C 16.332031 -17.433594 15.757812 -15.996094 14.609375 -14.878906 C 13.464844 -13.761719 11.75 -13.203125 9.464844 -13.203125 Z M 5.726562 -13.203125 "/></g></g></g><g fill="#ffa888" fill-opacity="1"><g transform="translate(168.861707, 44.683809)"><g><path d="M -1.269531 0 L -1.269531 -0.941406 L -0.828125 -1.089844 C -0.414062 -1.230469 0.00390625 -1.511719 0.421875 -1.941406 C 0.855469 -2.382812 1.335938 -3.265625 1.871094 -4.585938 L 9.125 -22.558594 L 9.722656 -22.316406 L 9.117188 -22.542969 C 9.277344 -22.960938 9.257812 -23.371094 9.066406 -23.769531 L 9.0625 -23.78125 L 8.476562 -25.148438 L 12.417969 -26.933594 L 21.734375 -4.554688 C 22.269531 -3.25 22.742188 -2.371094 23.144531 -1.921875 C 23.539062 -1.488281 23.886719 -1.203125 24.195312 -1.070312 L 24.582031 -0.898438 L 24.582031 0.644531 L 17.585938 0.644531 L 17.585938 -0.957031 L 18.042969 -1.09375 C 18.179688 -1.136719 18.265625 -1.183594 18.296875 -1.226562 C 18.3125 -1.246094 18.3125 -1.292969 18.296875 -1.367188 C 18.207031 -1.828125 17.875 -2.722656 17.304688 -4.054688 L 15.054688 -9.476562 L 15.652344 -9.722656 L 15.652344 -9.078125 L 5.265625 -9.078125 L 5.265625 -9.722656 L 5.863281 -9.480469 L 3.691406 -4.105469 C 3.265625 -3.039062 3.082031 -2.238281 3.144531 -1.703125 C 3.164062 -1.515625 3.214844 -1.378906 3.296875 -1.289062 C 3.375 -1.203125 3.496094 -1.144531 3.660156 -1.109375 L 4.179688 -1.007812 L 4.179688 0.644531 L -1.269531 0.644531 Z M 0.0195312 0 L -0.625 0 L -0.625 -0.644531 L 3.535156 -0.644531 L 3.535156 0 L 2.890625 0 L 2.890625 -0.480469 L 3.535156 -0.480469 L 3.410156 0.152344 C 2.960938 0.0625 2.605469 -0.128906 2.335938 -0.429688 C 2.074219 -0.722656 1.917969 -1.097656 1.863281 -1.554688 C 1.777344 -2.308594 1.988281 -3.320312 2.496094 -4.585938 L 4.832031 -10.367188 L 16.082031 -10.367188 L 18.492188 -4.5625 C 19.097656 -3.144531 19.453125 -2.164062 19.5625 -1.613281 C 19.644531 -1.1875 19.578125 -0.8125 19.359375 -0.496094 C 19.15625 -0.203125 18.84375 0.0078125 18.417969 0.136719 L 18.230469 -0.480469 L 18.875 -0.480469 L 18.875 0 L 18.230469 0 L 18.230469 -0.644531 L 23.9375 -0.644531 L 23.9375 0 L 23.292969 0 L 23.292969 -0.480469 L 23.9375 -0.480469 L 23.679688 0.113281 C 23.203125 -0.0976562 22.703125 -0.488281 22.1875 -1.058594 C 21.683594 -1.617188 21.136719 -2.617188 20.542969 -4.0625 L 11.484375 -25.824219 L 12.078125 -26.074219 L 12.34375 -25.488281 L 9.582031 -24.234375 L 9.316406 -24.820312 L 9.910156 -25.074219 L 10.242188 -24.300781 L 9.648438 -24.046875 L 10.230469 -24.324219 C 10.578125 -23.597656 10.609375 -22.851562 10.324219 -22.089844 L 10.324219 -22.082031 L 3.066406 -4.105469 C 2.46875 -2.625 1.894531 -1.605469 1.34375 -1.042969 C 0.78125 -0.464844 0.191406 -0.0703125 -0.421875 0.132812 L -0.625 -0.480469 L 0.0195312 -0.480469 Z M 5.488281 -10.917969 L 15.429688 -10.917969 L 15.429688 -10.273438 L 14.835938 -10.027344 L 9.789062 -22.144531 L 10.386719 -22.390625 L 10.984375 -22.148438 L 6.085938 -10.03125 L 5.488281 -10.273438 Z M 4.53125 -9.628906 L 10.375 -24.089844 L 16.398438 -9.628906 Z M 4.53125 -9.628906 "/></g></g></g><g fill="#ffa888" fill-opacity="1"><g transform="translate(199.723499, 44.683809)"><g><path d="M 1.234375 0 L 1.234375 -0.957031 L 1.691406 -1.09375 C 2.050781 -1.207031 2.300781 -1.441406 2.433594 -1.808594 C 2.617188 -2.300781 2.707031 -3.257812 2.707031 -4.675781 L 2.707031 -21.101562 C 2.707031 -22.546875 2.617188 -23.507812 2.433594 -23.984375 C 2.300781 -24.339844 2.054688 -24.574219 1.691406 -24.683594 L 1.234375 -24.824219 L 1.234375 -26.421875 L 8.488281 -26.421875 L 8.488281 -24.824219 L 8.03125 -24.683594 C 7.667969 -24.574219 7.421875 -24.339844 7.285156 -23.984375 C 7.105469 -23.507812 7.015625 -22.546875 7.015625 -21.101562 L 7.015625 -13.957031 L 6.371094 -13.957031 L 6.371094 -14.601562 L 20.402344 -14.601562 L 20.402344 -13.957031 L 19.757812 -13.957031 L 19.757812 -21.101562 C 19.757812 -22.546875 19.667969 -23.507812 19.484375 -23.984375 C 19.351562 -24.339844 19.105469 -24.574219 18.742188 -24.683594 L 18.285156 -24.824219 L 18.285156 -26.421875 L 25.539062 -26.421875 L 25.539062 -24.824219 L 25.082031 -24.683594 C 24.71875 -24.574219 24.472656 -24.339844 24.339844 -23.984375 C 24.15625 -23.507812 24.066406 -22.546875 24.066406 -21.101562 L 24.066406 -4.675781 C 24.066406 -3.257812 24.15625 -2.300781 24.339844 -1.808594 C 24.472656 -1.441406 24.722656 -1.207031 25.082031 -1.09375 L 25.539062 -0.957031 L 25.539062 0.644531 L 18.285156 0.644531 L 18.285156 -0.957031 L 18.742188 -1.09375 C 19.101562 -1.207031 19.351562 -1.441406 19.484375 -1.808594 C 19.667969 -2.300781 19.757812 -3.257812 19.757812 -4.675781 L 19.757812 -13.367188 L 20.402344 -13.367188 L 20.402344 -12.722656 L 6.371094 -12.722656 L 6.371094 -13.367188 L 7.015625 -13.367188 L 7.015625 -4.675781 C 7.015625 -3.257812 7.105469 -2.300781 7.289062 -1.808594 C 7.421875 -1.441406 7.671875 -1.207031 8.03125 -1.09375 L 8.488281 -0.957031 L 8.488281 0.644531 L 1.234375 0.644531 Z M 2.523438 0 L 1.878906 0 L 1.878906 -0.644531 L 7.84375 -0.644531 L 7.84375 0 L 7.199219 0 L 7.199219 -0.480469 L 7.84375 -0.480469 L 7.65625 0.136719 C 6.886719 -0.0976562 6.363281 -0.59375 6.078125 -1.359375 C 5.84375 -1.996094 5.726562 -3.101562 5.726562 -4.675781 L 5.726562 -14.011719 L 21.046875 -14.011719 L 21.046875 -4.675781 C 21.046875 -3.101562 20.929688 -1.996094 20.695312 -1.359375 C 20.410156 -0.59375 19.886719 -0.0976562 19.117188 0.136719 L 18.929688 -0.480469 L 19.574219 -0.480469 L 19.574219 0 L 18.929688 0 L 18.929688 -0.644531 L 24.894531 -0.644531 L 24.894531 0 L 24.25 0 L 24.25 -0.480469 L 24.894531 -0.480469 L 24.707031 0.136719 C 23.9375 -0.0976562 23.414062 -0.59375 23.128906 -1.359375 C 22.894531 -1.996094 22.777344 -3.101562 22.777344 -4.675781 L 22.777344 -21.101562 C 22.777344 -22.703125 22.894531 -23.816406 23.132812 -24.441406 C 23.414062 -25.191406 23.941406 -25.683594 24.707031 -25.917969 L 24.894531 -25.300781 L 24.25 -25.300781 L 24.25 -25.777344 L 24.894531 -25.777344 L 24.894531 -25.132812 L 18.929688 -25.132812 L 18.929688 -25.777344 L 19.574219 -25.777344 L 19.574219 -25.300781 L 18.929688 -25.300781 L 19.117188 -25.917969 C 19.882812 -25.683594 20.410156 -25.191406 20.691406 -24.441406 C 20.929688 -23.816406 21.046875 -22.703125 21.046875 -21.101562 L 21.046875 -13.3125 L 5.726562 -13.3125 L 5.726562 -21.101562 C 5.726562 -22.703125 5.84375 -23.816406 6.082031 -24.441406 C 6.363281 -25.191406 6.890625 -25.683594 7.65625 -25.917969 L 7.84375 -25.300781 L 7.199219 -25.300781 L 7.199219 -25.777344 L 7.84375 -25.777344 L 7.84375 -25.132812 L 1.878906 -25.132812 L 1.878906 -25.777344 L 2.523438 -25.777344 L 2.523438 -25.300781 L 1.878906 -25.300781 L 2.066406 -25.917969 C 2.832031 -25.683594 3.359375 -25.191406 3.640625 -24.441406 C 3.878906 -23.816406 3.996094 -22.703125 3.996094 -21.101562 L 3.996094 -4.675781 C 3.996094 -3.101562 3.878906 -1.996094 3.644531 -1.359375 C 3.359375 -0.59375 2.835938 -0.0976562 2.066406 0.136719 L 1.878906 -0.480469 L 2.523438 -0.480469 Z M 2.523438 0 "/></g></g></g><g fill="#ffb1b1" fill-opacity="1"><g transform="translate(31.456284, 44.683809)"><g><path d="M 1.875 0 L 1.875 -0.484375 C 2.4375 -0.648438 2.820312 -1.015625 3.03125 -1.578125 C 3.238281 -2.148438 3.34375 -3.179688 3.34375 -4.671875 L 3.34375 -21.109375 C 3.34375 -22.628906 3.238281 -23.664062 3.03125 -24.21875 C 2.820312 -24.769531 2.4375 -25.128906 1.875 -25.296875 L 1.875 -25.78125 L 7.84375 -25.78125 L 7.84375 -25.296875 C 7.28125 -25.128906 6.894531 -24.769531 6.6875 -24.21875 C 6.476562 -23.664062 6.375 -22.628906 6.375 -21.109375 L 6.375 -11.75 L 16.015625 -21.625 C 17.171875 -22.820312 17.835938 -23.734375 18.015625 -24.359375 C 18.203125 -24.984375 17.941406 -25.347656 17.234375 -25.453125 L 17.234375 -25.78125 L 22.359375 -25.78125 L 22.359375 -25.296875 C 21.765625 -25.128906 21.070312 -24.878906 20.28125 -24.546875 C 19.5 -24.210938 18.582031 -23.503906 17.53125 -22.421875 L 9.6875 -14.40625 L 10.53125 -14.4375 C 11.90625 -14.53125 13.023438 -14.460938 13.890625 -14.234375 C 14.765625 -14.003906 15.488281 -13.582031 16.0625 -12.96875 C 16.644531 -12.351562 17.1875 -11.515625 17.6875 -10.453125 C 18.195312 -9.398438 18.757812 -8.085938 19.375 -6.515625 C 20.007812 -4.941406 20.535156 -3.71875 20.953125 -2.84375 C 21.367188 -1.976562 21.753906 -1.375 22.109375 -1.03125 C 22.472656 -0.6875 22.847656 -0.515625 23.234375 -0.515625 C 23.359375 -0.515625 23.46875 -0.515625 23.5625 -0.515625 C 23.664062 -0.515625 23.765625 -0.523438 23.859375 -0.546875 L 23.859375 -0.078125 C 23.546875 0.0234375 23.195312 0.09375 22.8125 0.125 C 22.4375 0.164062 22.050781 0.1875 21.65625 0.1875 C 20.769531 0.1875 20.054688 0 19.515625 -0.375 C 18.972656 -0.757812 18.488281 -1.390625 18.0625 -2.265625 C 17.632812 -3.140625 17.125 -4.285156 16.53125 -5.703125 C 15.914062 -7.203125 15.394531 -8.472656 14.96875 -9.515625 C 14.539062 -10.554688 14.101562 -11.394531 13.65625 -12.03125 C 13.21875 -12.675781 12.703125 -13.140625 12.109375 -13.421875 C 11.523438 -13.703125 10.765625 -13.832031 9.828125 -13.8125 L 9.09375 -13.8125 L 6.375 -11.015625 L 6.375 -4.671875 C 6.375 -3.179688 6.476562 -2.148438 6.6875 -1.578125 C 6.894531 -1.015625 7.28125 -0.648438 7.84375 -0.484375 L 7.84375 0 Z M 1.875 0 "/></g></g></g><g fill="#ffb1b1" fill-opacity="1"><g transform="translate(62.281244, 44.683809)"><g><path d="M 1.875 0 L 1.875 -0.484375 C 2.4375 -0.648438 2.820312 -1.015625 3.03125 -1.578125 C 3.238281 -2.148438 3.34375 -3.179688 3.34375 -4.671875 L 3.34375 -21.109375 C 3.34375 -22.628906 3.238281 -23.664062 3.03125 -24.21875 C 2.820312 -24.769531 2.4375 -25.128906 1.875 -25.296875 L 1.875 -25.78125 L 19 -25.78125 L 19.40625 -20.984375 L 19 -20.875 C 18.363281 -22.5 17.472656 -23.628906 16.328125 -24.265625 C 15.191406 -24.910156 13.675781 -25.234375 11.78125 -25.234375 L 6.375 -25.234375 L 6.375 -14.0625 L 11.078125 -14.0625 C 12.484375 -14.0625 13.570312 -14.15625 14.34375 -14.34375 C 15.113281 -14.53125 15.675781 -14.8125 16.03125 -15.1875 C 16.394531 -15.570312 16.648438 -16.035156 16.796875 -16.578125 L 17.234375 -16.578125 L 17.234375 -11.015625 L 16.796875 -11.015625 C 16.648438 -11.578125 16.394531 -12.039062 16.03125 -12.40625 C 15.675781 -12.78125 15.113281 -13.054688 14.34375 -13.234375 C 13.570312 -13.421875 12.484375 -13.515625 11.078125 -13.515625 L 6.375 -13.515625 L 6.375 -2.203125 C 6.375 -1.097656 6.925781 -0.546875 8.03125 -0.546875 L 12.8125 -0.546875 C 14.582031 -0.546875 16.039062 -0.851562 17.1875 -1.46875 C 18.34375 -2.082031 19.253906 -3.25 19.921875 -4.96875 L 20.328125 -4.890625 L 20.03125 0 Z M 1.875 0 "/></g></g></g><g fill="#ffb1b1" fill-opacity="1"><g transform="translate(91.228033, 44.683809)"><g><path d="M 1.875 0 L 1.875 -0.484375 C 2.4375 -0.648438 2.820312 -1.015625 3.03125 -1.578125 C 3.238281 -2.148438 3.34375 -3.179688 3.34375 -4.671875 L 3.34375 -21.109375 C 3.34375 -22.628906 3.238281 -23.664062 3.03125 -24.21875 C 2.820312 -24.769531 2.4375 -25.128906 1.875 -25.296875 L 1.875 -25.78125 L 7.84375 -25.78125 L 7.84375 -25.296875 C 7.28125 -25.128906 6.894531 -24.769531 6.6875 -24.21875 C 6.476562 -23.664062 6.375 -22.628906 6.375 -21.109375 L 6.375 -4.671875 C 6.375 -3.179688 6.476562 -2.148438 6.6875 -1.578125 C 6.894531 -1.015625 7.28125 -0.648438 7.84375 -0.484375 L 7.84375 0 Z M 1.875 0 "/></g></g></g><g fill="#ffb1b1" fill-opacity="1"><g transform="translate(108.206107, 44.683809)"><g><path d="M -0.625 0 L -0.625 -0.484375 C -0.113281 -0.648438 0.382812 -0.984375 0.875 -1.484375 C 1.375 -1.992188 1.90625 -2.945312 2.46875 -4.34375 L 9.71875 -22.3125 C 9.9375 -22.90625 9.914062 -23.484375 9.65625 -24.046875 L 9.3125 -24.828125 L 12.078125 -26.078125 L 21.140625 -4.3125 C 21.703125 -2.9375 22.207031 -1.992188 22.65625 -1.484375 C 23.113281 -0.984375 23.539062 -0.648438 23.9375 -0.484375 L 23.9375 0 L 18.234375 0 L 18.234375 -0.484375 C 18.796875 -0.648438 19.023438 -0.984375 18.921875 -1.484375 C 18.828125 -1.992188 18.484375 -2.9375 17.890625 -4.3125 L 15.65625 -9.71875 L 5.265625 -9.71875 L 3.09375 -4.34375 C 2.15625 -2.007812 2.300781 -0.722656 3.53125 -0.484375 L 3.53125 0 Z M 5.484375 -10.28125 L 15.4375 -10.28125 L 10.390625 -22.390625 Z M 5.484375 -10.28125 "/></g></g></g><g fill="#ffb1b1" fill-opacity="1"><g transform="translate(139.067898, 44.683809)"><g><path d="M 20.625 0.25 C 19.6875 0.25 18.945312 0.0234375 18.40625 -0.421875 C 17.875 -0.878906 17.40625 -1.539062 17 -2.40625 C 16.59375 -3.28125 16.117188 -4.359375 15.578125 -5.640625 C 15.035156 -6.910156 14.578125 -8.023438 14.203125 -8.984375 C 13.835938 -9.941406 13.441406 -10.738281 13.015625 -11.375 C 12.585938 -12.019531 12.039062 -12.5 11.375 -12.8125 C 10.71875 -13.132812 9.835938 -13.296875 8.734375 -13.296875 L 6.375 -13.296875 L 6.375 -4.671875 C 6.375 -3.179688 6.476562 -2.148438 6.6875 -1.578125 C 6.894531 -1.015625 7.28125 -0.648438 7.84375 -0.484375 L 7.84375 0 L 1.875 0 L 1.875 -0.484375 C 2.4375 -0.648438 2.820312 -1.015625 3.03125 -1.578125 C 3.238281 -2.148438 3.34375 -3.179688 3.34375 -4.671875 L 3.34375 -21.109375 C 3.34375 -22.628906 3.238281 -23.664062 3.03125 -24.21875 C 2.820312 -24.769531 2.4375 -25.128906 1.875 -25.296875 L 1.875 -25.78125 L 9.140625 -25.78125 C 11.640625 -25.78125 13.585938 -25.523438 14.984375 -25.015625 C 16.390625 -24.515625 17.378906 -23.832031 17.953125 -22.96875 C 18.523438 -22.113281 18.8125 -21.132812 18.8125 -20.03125 C 18.8125 -18.3125 18.195312 -16.84375 16.96875 -15.625 C 15.75 -14.414062 13.9375 -13.675781 11.53125 -13.40625 C 12.65625 -13.257812 13.570312 -13.003906 14.28125 -12.640625 C 15 -12.285156 15.585938 -11.804688 16.046875 -11.203125 C 16.515625 -10.609375 16.929688 -9.878906 17.296875 -9.015625 C 17.671875 -8.160156 18.082031 -7.171875 18.53125 -6.046875 C 19.113281 -4.566406 19.609375 -3.421875 20.015625 -2.609375 C 20.421875 -1.804688 20.796875 -1.238281 21.140625 -0.90625 C 21.484375 -0.570312 21.863281 -0.40625 22.28125 -0.40625 C 22.40625 -0.40625 22.507812 -0.40625 22.59375 -0.40625 C 22.675781 -0.40625 22.769531 -0.414062 22.875 -0.4375 L 22.875 0 C 22.601562 0.09375 22.25 0.15625 21.8125 0.1875 C 21.382812 0.226562 20.988281 0.25 20.625 0.25 Z M 6.375 -13.84375 L 9.46875 -13.84375 C 11.570312 -13.84375 13.132812 -14.335938 14.15625 -15.328125 C 15.175781 -16.328125 15.6875 -17.613281 15.6875 -19.1875 C 15.6875 -20.289062 15.429688 -21.296875 14.921875 -22.203125 C 14.421875 -23.109375 13.613281 -23.835938 12.5 -24.390625 C 11.382812 -24.953125 9.921875 -25.234375 8.109375 -25.234375 C 7.835938 -25.234375 7.550781 -25.222656 7.25 -25.203125 C 6.957031 -25.191406 6.664062 -25.175781 6.375 -25.15625 Z M 6.375 -13.84375 "/></g></g></g><g fill="#ffb1b1" fill-opacity="1"><g transform="translate(168.861707, 44.683809)"><g><path d="M -0.625 0 L -0.625 -0.484375 C -0.113281 -0.648438 0.382812 -0.984375 0.875 -1.484375 C 1.375 -1.992188 1.90625 -2.945312 2.46875 -4.34375 L 9.71875 -22.3125 C 9.9375 -22.90625 9.914062 -23.484375 9.65625 -24.046875 L 9.3125 -24.828125 L 12.078125 -26.078125 L 21.140625 -4.3125 C 21.703125 -2.9375 22.207031 -1.992188 22.65625 -1.484375 C 23.113281 -0.984375 23.539062 -0.648438 23.9375 -0.484375 L 23.9375 0 L 18.234375 0 L 18.234375 -0.484375 C 18.796875 -0.648438 19.023438 -0.984375 18.921875 -1.484375 C 18.828125 -1.992188 18.484375 -2.9375 17.890625 -4.3125 L 15.65625 -9.71875 L 5.265625 -9.71875 L 3.09375 -4.34375 C 2.15625 -2.007812 2.300781 -0.722656 3.53125 -0.484375 L 3.53125 0 Z M 5.484375 -10.28125 L 15.4375 -10.28125 L 10.390625 -22.390625 Z M 5.484375 -10.28125 "/></g></g></g><g fill="#ffb1b1" fill-opacity="1"><g transform="translate(199.723499, 44.683809)"><g><path d="M 1.875 0 L 1.875 -0.484375 C 2.4375 -0.648438 2.820312 -1.015625 3.03125 -1.578125 C 3.238281 -2.148438 3.34375 -3.179688 3.34375 -4.671875 L 3.34375 -21.109375 C 3.34375 -22.628906 3.238281 -23.664062 3.03125 -24.21875 C 2.820312 -24.769531 2.4375 -25.128906 1.875 -25.296875 L 1.875 -25.78125 L 7.84375 -25.78125 L 7.84375 -25.296875 C 7.28125 -25.128906 6.894531 -24.769531 6.6875 -24.21875 C 6.476562 -23.664062 6.375 -22.628906 6.375 -21.109375 L 6.375 -13.953125 L 20.40625 -13.953125 L 20.40625 -21.109375 C 20.40625 -22.628906 20.300781 -23.664062 20.09375 -24.21875 C 19.882812 -24.769531 19.492188 -25.128906 18.921875 -25.296875 L 18.921875 -25.78125 L 24.890625 -25.78125 L 24.890625 -25.296875 C 24.328125 -25.128906 23.941406 -24.769531 23.734375 -24.21875 C 23.523438 -23.664062 23.421875 -22.628906 23.421875 -21.109375 L 23.421875 -4.671875 C 23.421875 -3.179688 23.523438 -2.148438 23.734375 -1.578125 C 23.941406 -1.015625 24.328125 -0.648438 24.890625 -0.484375 L 24.890625 0 L 18.921875 0 L 18.921875 -0.484375 C 19.492188 -0.648438 19.882812 -1.015625 20.09375 -1.578125 C 20.300781 -2.148438 20.40625 -3.179688 20.40625 -4.671875 L 20.40625 -13.375 L 6.375 -13.375 L 6.375 -4.671875 C 6.375 -3.179688 6.476562 -2.148438 6.6875 -1.578125 C 6.894531 -1.015625 7.28125 -0.648438 7.84375 -0.484375 L 7.84375 0 Z M 1.875 0 "/></g></g></g><g fill="#ffa888" fill-opacity="1"><g transform="translate(28.521119, 113.879213)"><g><path d="M 111.835938 -61.367188 C 111.835938 -61.675781 111.726562 -61.949219 111.503906 -62.195312 C 111.285156 -62.433594 111.027344 -62.554688 110.734375 -62.554688 C 109.261719 -62.554688 105.578125 -59.882812 99.679688 -54.535156 C 99.574219 -54.441406 99.5 -54.375 99.460938 -54.335938 C 97.308594 -52.355469 94.988281 -50.011719 92.492188 -47.308594 C 90.996094 -45.683594 88.792969 -43.207031 85.890625 -39.886719 C 85.164062 -39.058594 84.621094 -38.4375 84.261719 -38.023438 C 80.121094 -33.320312 74.019531 -26.175781 65.957031 -16.59375 C 64.230469 -14.542969 62.933594 -13.003906 62.070312 -11.980469 C 57.914062 -6.898438 55.453125 -4.359375 54.679688 -4.359375 C 54.179688 -4.359375 53.800781 -4.578125 53.546875 -5.015625 C 53.382812 -5.292969 53.300781 -5.621094 53.300781 -6 C 53.300781 -6.890625 54.183594 -8.875 55.953125 -11.960938 C 56.988281 -13.765625 58.085938 -15.5625 59.238281 -17.347656 C 61.628906 -21.011719 64.40625 -25.0625 67.574219 -29.503906 C 69.472656 -32.167969 72.359375 -36.136719 76.226562 -41.410156 C 79.867188 -46.371094 82.582031 -50.097656 84.371094 -52.601562 C 84.460938 -52.734375 84.675781 -53.027344 85.011719 -53.480469 C 87.238281 -56.496094 88.355469 -58.324219 88.355469 -58.96875 C 88.355469 -59.316406 88.222656 -59.617188 87.960938 -59.863281 C 87.695312 -60.117188 87.371094 -60.242188 86.992188 -60.242188 C 85.914062 -60.242188 84.171875 -59.398438 81.769531 -57.710938 C 80.097656 -56.539062 78.480469 -55.242188 76.917969 -53.824219 C 73.757812 -50.957031 70.28125 -47.652344 66.488281 -43.910156 C 64.207031 -41.664062 60.820312 -38.257812 56.324219 -33.699219 C 54.824219 -32.179688 53.699219 -31.039062 52.949219 -30.277344 C 52.558594 -29.890625 51.980469 -29.308594 51.207031 -28.53125 C 46.796875 -24.105469 43.421875 -20.855469 41.082031 -18.78125 C 37.15625 -15.292969 33.40625 -12.492188 29.839844 -10.371094 C 25.945312 -8.066406 22.039062 -6.230469 18.121094 -4.871094 C 13.519531 -3.273438 9.28125 -2.476562 5.398438 -2.476562 C -3.738281 -2.476562 -9.109375 -6.519531 -10.710938 -14.605469 L -10.929688 -15.703125 L -9.847656 -15.414062 C -6.074219 -14.402344 -2.589844 -13.894531 0.601562 -13.894531 C 5.804688 -13.894531 11.238281 -14.835938 16.898438 -16.71875 C 22.339844 -18.53125 27.316406 -20.976562 31.832031 -24.058594 C 33.371094 -25.113281 34.855469 -26.332031 36.296875 -27.714844 C 37.847656 -29.207031 39.207031 -30.769531 40.382812 -32.398438 C 43.109375 -36.179688 44.472656 -39.78125 44.472656 -43.195312 C 44.472656 -46.183594 43.109375 -48.472656 40.382812 -50.0625 C 39.207031 -50.746094 37.835938 -51.265625 36.265625 -51.617188 C 34.832031 -51.9375 33.339844 -52.097656 31.796875 -52.097656 C 27.117188 -52.097656 22.058594 -50.925781 16.613281 -48.578125 C 11.636719 -46.429688 7.160156 -43.6875 3.191406 -40.347656 C -0.949219 -36.855469 -4.066406 -33.332031 -6.160156 -29.773438 C -8.351562 -26.050781 -9.839844 -21.601562 -10.625 -16.4375 L -10.761719 -15.539062 L -11.59375 -15.902344 C -14.421875 -17.140625 -16.539062 -18.921875 -17.949219 -21.246094 C -19.304688 -23.476562 -19.980469 -26.164062 -19.980469 -29.3125 C -19.980469 -31.78125 -19.453125 -34.222656 -18.394531 -36.640625 C -17.429688 -38.855469 -16.058594 -40.96875 -14.277344 -42.984375 C -12.628906 -44.851562 -10.714844 -46.542969 -8.542969 -48.046875 C -6.464844 -49.488281 -4.304688 -50.660156 -2.058594 -51.558594 C 1.695312 -53.074219 5.550781 -53.835938 9.511719 -53.835938 C 11.632812 -53.835938 13.699219 -53.695312 15.71875 -53.414062 C 16.167969 -53.351562 16.445312 -53.320312 16.542969 -53.320312 C 16.609375 -53.320312 16.65625 -53.328125 16.6875 -53.34375 C 16.582031 -53.292969 16.53125 -53.199219 16.53125 -53.054688 C 16.53125 -52.96875 16.550781 -52.902344 16.59375 -52.855469 C 16.570312 -52.882812 16.519531 -52.914062 16.433594 -52.953125 C 16.175781 -53.082031 15.769531 -53.199219 15.226562 -53.300781 C 14 -53.527344 12.324219 -53.640625 10.199219 -53.640625 C 6.382812 -53.640625 2.546875 -52.941406 -1.304688 -51.542969 C -3.660156 -50.675781 -5.917969 -49.546875 -8.078125 -48.148438 C -10.351562 -46.679688 -12.339844 -45.023438 -14.050781 -43.183594 C -15.878906 -41.210938 -17.289062 -39.125 -18.273438 -36.929688 C -19.339844 -34.554688 -19.875 -32.132812 -19.875 -29.65625 C -19.875 -26.457031 -19.136719 -23.675781 -17.664062 -21.3125 C -16.140625 -18.867188 -13.9375 -17.0625 -11.054688 -15.902344 L -10.617188 -15.726562 L -10.617188 -15.257812 C -10.617188 -13.011719 -10.199219 -10.953125 -9.367188 -9.078125 C -8.578125 -7.300781 -7.449219 -5.761719 -5.976562 -4.464844 C -4.539062 -3.195312 -2.855469 -2.222656 -0.921875 -1.546875 C 1.023438 -0.867188 3.101562 -0.523438 5.3125 -0.523438 C 10.035156 -0.523438 15.511719 -1.960938 21.746094 -4.832031 C 26.867188 -7.191406 31.820312 -10.164062 36.609375 -13.757812 C 38.882812 -15.460938 41.808594 -18.136719 45.386719 -21.78125 C 47.558594 -23.992188 51.03125 -27.6875 55.804688 -32.863281 C 59.679688 -37.066406 62.597656 -40.191406 64.550781 -42.238281 C 67.828125 -45.671875 70.722656 -48.5625 73.234375 -50.90625 C 74.777344 -52.378906 76.890625 -54.136719 79.5625 -56.175781 C 83.128906 -58.902344 85.492188 -60.261719 86.652344 -60.261719 C 87.035156 -60.261719 87.382812 -60.15625 87.683594 -59.941406 C 88.085938 -59.65625 88.289062 -59.277344 88.289062 -58.796875 C 88.289062 -58.101562 87.257812 -56.480469 85.195312 -53.929688 C 84.128906 -52.617188 82.667969 -50.902344 80.8125 -48.785156 C 80.558594 -48.496094 80.394531 -48.3125 80.320312 -48.226562 C 75.570312 -42.808594 70.742188 -37.210938 65.839844 -31.433594 C 65.550781 -31.082031 65.035156 -30.464844 64.292969 -29.578125 C 59.828125 -24.261719 56.484375 -20 54.261719 -16.792969 C 50.320312 -11.109375 48.351562 -6.882812 48.351562 -4.113281 C 48.351562 -3.144531 48.476562 -2.355469 48.726562 -1.742188 C 49.011719 -1.046875 49.453125 -0.695312 50.054688 -0.695312 C 51.140625 -0.695312 52.6875 -1.667969 54.699219 -3.609375 C 55.878906 -4.746094 57.433594 -6.488281 59.367188 -8.835938 C 59.785156 -9.339844 60.074219 -9.6875 60.238281 -9.878906 C 61.527344 -11.398438 63.46875 -13.734375 66.058594 -16.878906 C 67.351562 -18.453125 68.324219 -19.632812 68.972656 -20.414062 C 74.421875 -27.054688 78.59375 -32.050781 81.484375 -35.402344 C 86.222656 -40.890625 90.636719 -45.683594 94.730469 -49.773438 C 103.265625 -58.308594 108.398438 -62.578125 110.132812 -62.578125 C 110.636719 -62.578125 111.042969 -62.402344 111.351562 -62.050781 C 111.632812 -61.734375 111.773438 -61.335938 111.773438 -60.851562 C 111.773438 -60.507812 111.546875 -60.03125 111.09375 -59.410156 C 110.746094 -58.9375 110.222656 -58.308594 109.519531 -57.519531 C 108.640625 -56.53125 106.84375 -54.613281 104.128906 -51.765625 C 99.96875 -47.40625 96.722656 -43.933594 94.390625 -41.34375 C 90.347656 -36.859375 86.902344 -32.753906 84.058594 -29.027344 C 76.421875 -19.03125 72.605469 -11.152344 72.605469 -5.398438 C 72.605469 -4.074219 72.894531 -2.964844 73.46875 -2.070312 C 74.09375 -1.097656 74.972656 -0.609375 76.109375 -0.609375 C 77.90625 -0.609375 80.730469 -2.082031 84.589844 -5.019531 C 86.066406 -6.148438 87.570312 -7.402344 89.105469 -8.785156 C 90.390625 -9.945312 91.460938 -10.976562 92.316406 -11.878906 L 92.820312 -11.398438 L 92.277344 -11.835938 C 92.34375 -11.917969 92.589844 -12.1875 93.007812 -12.640625 C 94.761719 -14.539062 95.640625 -15.523438 95.640625 -15.597656 L 95.640625 -15.617188 C 95.648438 -15.582031 95.664062 -15.542969 95.695312 -15.503906 C 95.777344 -15.390625 95.875 -15.332031 95.992188 -15.332031 C 96.101562 -15.332031 96.191406 -15.351562 96.253906 -15.390625 C 96.234375 -15.378906 96.199219 -15.351562 96.152344 -15.316406 C 96.035156 -15.21875 95.871094 -15.070312 95.65625 -14.867188 C 95.367188 -14.59375 94.796875 -14.027344 93.941406 -13.171875 C 90.886719 -10.105469 88.460938 -7.828125 86.671875 -6.335938 C 83.371094 -3.589844 80.851562 -2.21875 79.109375 -2.21875 C 77.671875 -2.21875 76.953125 -3.222656 76.953125 -5.226562 C 76.953125 -6.304688 77.570312 -8.316406 78.804688 -11.265625 C 79.476562 -12.863281 80.472656 -15.058594 81.800781 -17.851562 C 82.0625 -18.402344 82.238281 -18.777344 82.332031 -18.980469 C 85.078125 -24.761719 88.828125 -30.933594 93.582031 -37.496094 C 95.46875 -40.105469 97.671875 -42.988281 100.183594 -46.152344 C 101.683594 -48.042969 103.957031 -50.84375 107 -54.5625 C 107.738281 -55.460938 108.289062 -56.132812 108.652344 -56.578125 L 108.65625 -56.585938 L 108.664062 -56.589844 C 108.761719 -56.707031 108.933594 -56.902344 109.171875 -57.171875 C 110.007812 -58.105469 110.601562 -58.832031 110.964844 -59.359375 C 111.546875 -60.199219 111.835938 -60.867188 111.835938 -61.367188 Z M 113.230469 -61.367188 C 113.230469 -60.578125 112.859375 -59.644531 112.113281 -58.566406 C 111.714844 -57.996094 111.082031 -57.222656 110.214844 -56.246094 C 109.980469 -55.980469 109.8125 -55.792969 109.71875 -55.683594 L 109.191406 -56.136719 L 109.730469 -55.699219 C 109.363281 -55.25 108.8125 -54.578125 108.078125 -53.679688 C 105.039062 -49.96875 102.769531 -47.171875 101.273438 -45.285156 C 98.773438 -42.140625 96.585938 -39.269531 94.710938 -36.679688 C 90.007812 -30.183594 86.300781 -24.089844 83.597656 -18.390625 C 83.5 -18.1875 83.320312 -17.808594 83.058594 -17.253906 C 79.917969 -10.644531 78.347656 -6.636719 78.347656 -5.226562 C 78.347656 -4.664062 78.410156 -4.246094 78.53125 -3.972656 C 78.640625 -3.730469 78.832031 -3.609375 79.109375 -3.609375 C 80.515625 -3.609375 82.738281 -4.875 85.78125 -7.40625 C 87.539062 -8.871094 89.929688 -11.121094 92.957031 -14.15625 C 93.820312 -15.019531 94.398438 -15.59375 94.695312 -15.875 C 94.9375 -16.105469 95.128906 -16.277344 95.273438 -16.394531 C 95.542969 -16.613281 95.78125 -16.722656 95.992188 -16.722656 C 96.355469 -16.722656 96.632812 -16.585938 96.828125 -16.3125 C 96.964844 -16.125 97.03125 -15.882812 97.03125 -15.597656 C 97.03125 -15.257812 96.636719 -14.628906 95.84375 -13.707031 C 95.457031 -13.253906 94.851562 -12.582031 94.03125 -11.695312 C 93.632812 -11.265625 93.414062 -11.023438 93.363281 -10.964844 L 93.347656 -10.941406 L 93.328125 -10.921875 C 92.449219 -9.992188 91.351562 -8.933594 90.039062 -7.75 C 88.476562 -6.339844 86.941406 -5.0625 85.433594 -3.914062 C 81.328125 -0.78125 78.21875 0.78125 76.109375 0.78125 C 74.46875 0.78125 73.195312 0.0820312 72.296875 -1.316406 C 71.574219 -2.441406 71.210938 -3.804688 71.210938 -5.398438 C 71.210938 -11.46875 75.125 -19.625 82.953125 -29.875 C 85.816406 -33.628906 89.285156 -37.761719 93.355469 -42.277344 C 95.699219 -44.875 98.953125 -48.359375 103.121094 -52.726562 C 107.960938 -57.804688 110.378906 -60.511719 110.378906 -60.851562 C 110.378906 -61.074219 110.296875 -61.183594 110.132812 -61.183594 C 109.753906 -61.183594 108.894531 -60.675781 107.550781 -59.660156 C 106.359375 -58.757812 104.867188 -57.492188 103.082031 -55.871094 C 100.976562 -53.957031 98.519531 -51.597656 95.714844 -48.789062 C 91.644531 -44.722656 87.253906 -39.957031 82.539062 -34.492188 C 79.65625 -31.152344 75.492188 -26.160156 70.046875 -19.523438 C 69.398438 -18.746094 68.425781 -17.566406 67.132812 -15.996094 C 64.539062 -12.84375 62.59375 -10.503906 61.296875 -8.976562 C 61.140625 -8.792969 60.855469 -8.449219 60.441406 -7.949219 C 58.476562 -5.5625 56.882812 -3.78125 55.667969 -2.605469 C 53.386719 -0.40625 51.515625 0.695312 50.054688 0.695312 C 48.832031 0.695312 47.960938 0.0585938 47.4375 -1.214844 C 47.117188 -1.996094 46.957031 -2.960938 46.957031 -4.113281 C 46.957031 -7.171875 49.011719 -11.664062 53.117188 -17.585938 C 55.367188 -20.828125 58.734375 -25.125 63.226562 -30.476562 C 63.964844 -31.355469 64.484375 -31.976562 64.777344 -32.332031 C 69.683594 -38.117188 74.515625 -43.71875 79.265625 -49.136719 C 79.34375 -49.226562 79.507812 -49.414062 79.765625 -49.707031 C 84.519531 -55.117188 86.898438 -58.148438 86.898438 -58.796875 L 86.882812 -58.804688 C 86.820312 -58.847656 86.742188 -58.871094 86.652344 -58.871094 C 85.804688 -58.871094 83.726562 -57.605469 80.410156 -55.070312 C 79.179688 -54.128906 77.914062 -53.113281 76.613281 -52.019531 C 75.519531 -51.101562 74.710938 -50.390625 74.183594 -49.886719 C 71.691406 -47.5625 68.816406 -44.691406 65.558594 -41.277344 C 63.609375 -39.234375 60.699219 -36.117188 56.828125 -31.917969 C 52.046875 -26.734375 48.5625 -23.027344 46.378906 -20.804688 C 42.753906 -17.109375 39.773438 -14.390625 37.445312 -12.640625 C 32.578125 -8.992188 27.539062 -5.96875 22.328125 -3.566406 C 15.910156 -0.609375 10.238281 0.867188 5.3125 0.867188 C 2.941406 0.867188 0.710938 0.5 -1.382812 -0.230469 C -3.488281 -0.96875 -5.324219 -2.03125 -6.898438 -3.421875 C -8.523438 -4.851562 -9.769531 -6.550781 -10.640625 -8.511719 C -11.554688 -10.566406 -12.011719 -12.8125 -12.011719 -15.257812 L -11.3125 -15.257812 L -11.574219 -14.609375 C -14.738281 -15.882812 -17.160156 -17.871094 -18.847656 -20.578125 C -20.460938 -23.164062 -21.265625 -26.191406 -21.265625 -29.65625 C -21.265625 -32.332031 -20.691406 -34.945312 -19.546875 -37.5 C -18.496094 -39.835938 -17.003906 -42.046875 -15.070312 -44.132812 C -13.28125 -46.058594 -11.203125 -47.785156 -8.835938 -49.320312 C -6.589844 -50.773438 -4.238281 -51.949219 -1.78125 -52.851562 C 2.222656 -54.308594 6.21875 -55.035156 10.199219 -55.035156 C 15.347656 -55.035156 17.921875 -54.375 17.921875 -53.054688 C 17.921875 -52.601562 17.707031 -52.277344 17.273438 -52.078125 C 17.054688 -51.976562 16.8125 -51.929688 16.542969 -51.929688 C 16.378906 -51.929688 16.042969 -51.964844 15.527344 -52.035156 C 13.574219 -52.308594 11.570312 -52.441406 9.511719 -52.441406 C 5.730469 -52.441406 2.046875 -51.714844 -1.542969 -50.265625 C -3.691406 -49.40625 -5.757812 -48.285156 -7.75 -46.902344 C -9.828125 -45.460938 -11.65625 -43.847656 -13.234375 -42.0625 C -14.917969 -40.15625 -16.210938 -38.164062 -17.121094 -36.082031 C -18.097656 -33.84375 -18.585938 -31.585938 -18.585938 -29.3125 C -18.585938 -23.425781 -16.070312 -19.382812 -11.035156 -17.179688 L -11.3125 -16.542969 L -12 -16.644531 C -11.191406 -21.988281 -9.640625 -26.601562 -7.359375 -30.480469 C -5.1875 -34.171875 -1.96875 -37.820312 2.292969 -41.414062 C 6.371094 -44.84375 10.957031 -47.65625 16.0625 -49.855469 C 21.679688 -52.28125 26.925781 -53.492188 31.796875 -53.492188 C 33.445312 -53.492188 35.035156 -53.320312 36.570312 -52.976562 C 38.28125 -52.59375 39.785156 -52.023438 41.082031 -51.265625 C 42.558594 -50.40625 43.703125 -49.339844 44.511719 -48.070312 C 45.414062 -46.652344 45.863281 -45.027344 45.863281 -43.195312 C 45.863281 -39.480469 44.414062 -35.609375 41.511719 -31.582031 C 40.289062 -29.886719 38.871094 -28.261719 37.261719 -26.714844 C 35.765625 -25.273438 34.21875 -24.007812 32.617188 -22.910156 C 27.996094 -19.753906 22.902344 -17.25 17.339844 -15.398438 C 11.535156 -13.46875 5.957031 -12.503906 0.601562 -12.503906 C -2.714844 -12.503906 -6.316406 -13.023438 -10.207031 -14.070312 L -10.027344 -14.742188 L -9.34375 -14.875 C -8.589844 -11.054688 -6.945312 -8.242188 -4.417969 -6.4375 C -2.015625 -4.722656 1.257812 -3.867188 5.398438 -3.867188 C 9.121094 -3.867188 13.210938 -4.640625 17.664062 -6.1875 C 21.496094 -7.515625 25.316406 -9.308594 29.128906 -11.570312 C 32.621094 -13.644531 36.296875 -16.394531 40.160156 -19.820312 C 42.476562 -21.878906 45.832031 -25.109375 50.21875 -29.515625 C 50.992188 -30.292969 51.574219 -30.875 51.957031 -31.257812 C 52.710938 -32.019531 53.835938 -33.15625 55.332031 -34.675781 C 59.835938 -39.242188 63.226562 -42.648438 65.507812 -44.902344 C 69.316406 -48.65625 72.808594 -51.972656 75.984375 -54.855469 C 77.585938 -56.3125 79.25 -57.644531 80.96875 -58.851562 C 83.613281 -60.707031 85.621094 -61.632812 86.992188 -61.632812 C 87.742188 -61.632812 88.382812 -61.382812 88.917969 -60.878906 C 89.46875 -60.355469 89.746094 -59.71875 89.746094 -58.96875 C 89.746094 -58.3125 89.285156 -57.261719 88.359375 -55.820312 C 87.875 -55.0625 87.132812 -54.007812 86.132812 -52.652344 C 85.804688 -52.210938 85.59375 -51.925781 85.503906 -51.789062 C 83.710938 -49.285156 80.992188 -45.550781 77.351562 -40.585938 C 73.484375 -35.320312 70.601562 -31.355469 68.707031 -28.695312 C 65.550781 -24.269531 62.785156 -20.234375 60.410156 -16.589844 C 59.265625 -14.828125 58.183594 -13.054688 57.160156 -11.265625 C 55.515625 -8.398438 54.691406 -6.640625 54.691406 -6 C 54.691406 -5.875 54.710938 -5.78125 54.746094 -5.71875 C 54.734375 -5.742188 54.710938 -5.753906 54.679688 -5.753906 C 54.621094 -5.753906 54.570312 -5.746094 54.523438 -5.726562 L 54.527344 -5.730469 C 54.578125 -5.761719 54.644531 -5.808594 54.730469 -5.878906 C 54.921875 -6.03125 55.171875 -6.261719 55.476562 -6.570312 C 56.023438 -7.113281 56.726562 -7.875 57.585938 -8.847656 C 58.722656 -10.136719 59.859375 -11.476562 61.003906 -12.875 C 61.871094 -13.902344 63.164062 -15.441406 64.890625 -17.488281 C 72.957031 -27.078125 79.066406 -34.230469 83.210938 -38.941406 C 83.574219 -39.355469 84.117188 -39.972656 84.839844 -40.800781 C 87.753906 -44.132812 89.960938 -46.617188 91.46875 -48.25 C 93.988281 -50.984375 96.34375 -53.355469 98.523438 -55.371094 C 98.570312 -55.410156 98.644531 -55.476562 98.742188 -55.566406 C 100.96875 -57.582031 102.855469 -59.199219 104.40625 -60.417969 C 107.40625 -62.773438 109.515625 -63.949219 110.734375 -63.949219 C 111.441406 -63.949219 112.039062 -63.675781 112.535156 -63.132812 C 113 -62.621094 113.230469 -62.035156 113.230469 -61.367188 Z M 44.578125 -42.769531 C 44.578125 -39.414062 43.195312 -35.84375 40.425781 -32.050781 C 39.269531 -30.46875 37.945312 -28.957031 36.445312 -27.515625 C 35.050781 -26.171875 33.632812 -25.007812 32.191406 -24.023438 C 27.746094 -21.046875 22.863281 -18.621094 17.53125 -16.753906 C 11.738281 -14.71875 6.378906 -13.703125 1.457031 -13.703125 C -2.222656 -13.703125 -6.085938 -14.253906 -10.125 -15.355469 L -10.742188 -15.523438 L -10.628906 -16.152344 C -10.117188 -18.960938 -9.511719 -21.441406 -8.8125 -23.589844 C -8.074219 -25.84375 -7.171875 -27.917969 -6.101562 -29.816406 C -5.03125 -31.714844 -3.71875 -33.566406 -2.164062 -35.367188 C -0.675781 -37.097656 1.152344 -38.910156 3.3125 -40.804688 C 7.207031 -44.253906 11.605469 -46.988281 16.511719 -49.015625 C 21.664062 -51.144531 26.730469 -52.207031 31.710938 -52.207031 C 35.226562 -52.207031 38.089844 -51.574219 40.296875 -50.316406 C 43.152344 -48.683594 44.578125 -46.167969 44.578125 -42.769531 Z M 43.1875 -42.769531 C 43.1875 -45.628906 41.992188 -47.742188 39.605469 -49.105469 C 37.613281 -50.246094 34.980469 -50.8125 31.710938 -50.8125 C 26.914062 -50.8125 22.027344 -49.785156 17.042969 -47.726562 C 12.28125 -45.761719 8.011719 -43.105469 4.230469 -39.757812 C 2.117188 -37.90625 0.339844 -36.140625 -1.109375 -34.460938 C -2.601562 -32.726562 -3.863281 -30.953125 -4.890625 -29.128906 C -5.914062 -27.316406 -6.777344 -25.324219 -7.488281 -23.15625 C -8.167969 -21.070312 -8.757812 -18.652344 -9.257812 -15.902344 L -9.941406 -16.027344 L -9.757812 -16.699219 C -5.839844 -15.628906 -2.097656 -15.09375 1.457031 -15.09375 C 6.222656 -15.09375 11.425781 -16.085938 17.070312 -18.066406 C 22.289062 -19.898438 27.066406 -22.265625 31.40625 -25.171875 C 32.78125 -26.113281 34.140625 -27.226562 35.480469 -28.515625 C 36.921875 -29.902344 38.195312 -31.355469 39.300781 -32.871094 C 41.890625 -36.417969 43.1875 -39.71875 43.1875 -42.769531 Z M 43.1875 -42.769531 "/></g></g></g><g fill="#ffa888" fill-opacity="1"><g transform="translate(123.733538, 113.879213)"><g><path d="M 16.996094 -19.675781 C 17.085938 -19.945312 17.128906 -20.160156 17.128906 -20.3125 C 17.128906 -20.699219 16.875 -21.011719 16.363281 -21.242188 C 15.851562 -21.472656 15.253906 -21.585938 14.570312 -21.585938 C 12.851562 -21.585938 10.785156 -21.066406 8.375 -20.019531 C 5.992188 -18.984375 3.691406 -17.625 1.472656 -15.933594 C -0.847656 -14.167969 -2.6875 -12.328125 -4.050781 -10.417969 C -5.515625 -8.363281 -6.246094 -6.464844 -6.246094 -4.714844 C -6.246094 -3.523438 -5.847656 -2.550781 -5.050781 -1.804688 C -4.265625 -1.066406 -3.265625 -0.695312 -2.058594 -0.695312 C -0.917969 -0.695312 0.484375 -1.289062 2.152344 -2.480469 C 3.144531 -3.1875 4.496094 -4.34375 6.203125 -5.945312 C 6.519531 -6.246094 6.753906 -6.464844 6.898438 -6.597656 L 8.03125 -5.863281 C 7.542969 -4.394531 7.296875 -3.351562 7.296875 -2.742188 C 7.296875 -2.082031 7.53125 -1.574219 8.003906 -1.222656 C 8.46875 -0.871094 9.085938 -0.695312 9.855469 -0.695312 C 11.902344 -0.695312 14.808594 -2.089844 18.582031 -4.878906 C 21.085938 -6.726562 23.699219 -8.984375 26.425781 -11.640625 L 26.457031 -11.671875 C 27.132812 -12.25 27.824219 -12.886719 28.535156 -13.585938 C 29.011719 -14.058594 29.378906 -14.453125 29.640625 -14.769531 C 29.78125 -14.9375 29.886719 -15.074219 29.953125 -15.183594 C 29.976562 -15.222656 29.992188 -15.253906 30 -15.277344 C 29.992188 -15.253906 29.988281 -15.21875 29.988281 -15.171875 L 29.988281 -15.1875 C 29.996094 -15.152344 30.015625 -15.113281 30.042969 -15.074219 C 30.125 -14.960938 30.222656 -14.902344 30.339844 -14.902344 C 30.46875 -14.902344 30.570312 -14.929688 30.652344 -14.980469 C 30.632812 -14.96875 30.601562 -14.945312 30.554688 -14.910156 C 30.453125 -14.828125 30.300781 -14.699219 30.097656 -14.519531 C 29.832031 -14.285156 29.289062 -13.796875 28.46875 -13.054688 C 24.792969 -9.722656 21.875 -7.203125 19.71875 -5.5 C 15.71875 -2.339844 12.914062 -0.761719 11.3125 -0.761719 C 10.824219 -0.761719 10.390625 -0.890625 10.011719 -1.148438 C 9.5 -1.496094 9.246094 -1.96875 9.246094 -2.570312 C 9.246094 -3.15625 9.757812 -4.207031 10.777344 -5.722656 C 11.425781 -6.683594 12.078125 -7.578125 12.742188 -8.40625 L 23.882812 -22.460938 L 24.425781 -22.027344 L 24.464844 -21.332031 L 19.578125 -21.074219 L 19.542969 -21.769531 L 20.082031 -21.328125 L 18.195312 -19.015625 Z M 18.316406 -19.234375 L 17.65625 -19.457031 L 17.117188 -19.894531 L 19.195312 -22.449219 L 25.929688 -22.804688 L 13.828125 -7.535156 C 13.191406 -6.738281 12.558594 -5.875 11.933594 -4.945312 C 11.070312 -3.664062 10.636719 -2.871094 10.636719 -2.570312 C 10.636719 -2.460938 10.691406 -2.371094 10.792969 -2.300781 C 10.9375 -2.203125 11.113281 -2.152344 11.3125 -2.152344 C 12.59375 -2.152344 15.105469 -3.632812 18.855469 -6.59375 C 20.988281 -8.277344 23.878906 -10.773438 27.53125 -14.085938 C 28.359375 -14.835938 28.90625 -15.328125 29.179688 -15.566406 C 29.398438 -15.757812 29.566406 -15.902344 29.6875 -16 C 29.9375 -16.195312 30.152344 -16.296875 30.339844 -16.296875 C 30.703125 -16.296875 30.980469 -16.160156 31.175781 -15.886719 C 31.3125 -15.695312 31.378906 -15.457031 31.378906 -15.171875 C 31.378906 -14.683594 30.757812 -13.824219 29.511719 -12.597656 C 28.78125 -11.875 28.066406 -11.214844 27.367188 -10.613281 L 26.914062 -11.140625 L 27.398438 -10.644531 C 24.625 -7.941406 21.964844 -5.644531 19.410156 -3.757812 C 15.390625 -0.789062 12.207031 0.695312 9.855469 0.695312 C 8.777344 0.695312 7.882812 0.429688 7.167969 -0.105469 C 6.324219 -0.738281 5.902344 -1.617188 5.902344 -2.742188 C 5.902344 -3.503906 6.171875 -4.691406 6.710938 -6.304688 L 7.371094 -6.085938 L 7.84375 -5.574219 C 7.699219 -5.441406 7.472656 -5.226562 7.15625 -4.929688 C 5.402344 -3.285156 4.003906 -2.089844 2.960938 -1.34375 C 1.050781 0.015625 -0.621094 0.695312 -2.058594 0.695312 C -3.632812 0.695312 -4.949219 0.203125 -6.003906 -0.789062 C -7.09375 -1.8125 -7.640625 -3.121094 -7.640625 -4.714844 C -7.640625 -6.761719 -6.820312 -8.933594 -5.183594 -11.226562 C -3.742188 -13.25 -1.804688 -15.1875 0.628906 -17.042969 C 2.933594 -18.800781 5.332031 -20.21875 7.824219 -21.296875 C 10.40625 -22.417969 12.65625 -22.980469 14.570312 -22.980469 C 15.453125 -22.980469 16.242188 -22.824219 16.933594 -22.511719 C 17.996094 -22.035156 18.523438 -21.300781 18.523438 -20.3125 C 18.523438 -20.007812 18.453125 -19.648438 18.316406 -19.234375 Z M 16.808594 -19.371094 C 16.808594 -18.296875 15.988281 -16.660156 14.351562 -14.460938 C 12.921875 -12.539062 11.105469 -10.472656 8.902344 -8.261719 C 6.714844 -6.0625 4.664062 -4.238281 2.757812 -2.796875 C 0.582031 -1.152344 -1.019531 -0.332031 -2.058594 -0.332031 C -2.6875 -0.332031 -3.242188 -0.605469 -3.714844 -1.148438 C -4.160156 -1.65625 -4.382812 -2.214844 -4.382812 -2.828125 C -4.382812 -4.355469 -3.1875 -6.609375 -0.800781 -9.59375 C 0.613281 -11.363281 2.289062 -13.214844 4.222656 -15.148438 C 4.253906 -15.179688 4.308594 -15.234375 4.378906 -15.304688 C 6.171875 -17.101562 7.648438 -18.441406 8.808594 -19.324219 C 10.960938 -20.960938 12.824219 -21.78125 14.398438 -21.78125 C 15.0625 -21.78125 15.628906 -21.542969 16.101562 -21.074219 C 16.574219 -20.601562 16.808594 -20.035156 16.808594 -19.371094 Z M 15.417969 -19.371094 C 15.417969 -19.648438 15.316406 -19.886719 15.117188 -20.089844 C 14.917969 -20.289062 14.679688 -20.386719 14.398438 -20.386719 C 13.136719 -20.386719 11.554688 -19.664062 9.652344 -18.214844 C 8.542969 -17.371094 7.113281 -16.074219 5.363281 -14.320312 C 5.292969 -14.25 5.242188 -14.199219 5.207031 -14.164062 C 3.308594 -12.269531 1.671875 -10.453125 0.285156 -8.726562 C -1.898438 -5.996094 -2.988281 -4.03125 -2.988281 -2.828125 C -2.988281 -2.5625 -2.882812 -2.308594 -2.667969 -2.066406 C -2.46875 -1.839844 -2.265625 -1.726562 -2.058594 -1.726562 C -1.332031 -1.726562 -0.0078125 -2.453125 1.917969 -3.90625 C 3.773438 -5.3125 5.773438 -7.089844 7.917969 -9.242188 C 10.070312 -11.410156 11.84375 -13.425781 13.234375 -15.292969 C 14.6875 -17.246094 15.417969 -18.605469 15.417969 -19.371094 Z M 15.417969 -19.371094 "/></g></g></g><g fill="#ffa888" fill-opacity="1"><g transform="translate(153.899855, 113.879213)"><g><path d="M 20.730469 -15.257812 C 20.730469 -15.152344 20.765625 -15.074219 20.839844 -15.015625 C 20.863281 -14.996094 20.886719 -14.988281 20.914062 -14.988281 C 20.953125 -14.988281 20.984375 -14.992188 21.015625 -15.003906 L 21 -14.996094 C 20.949219 -14.964844 20.886719 -14.914062 20.8125 -14.84375 C 20.695312 -14.734375 20.523438 -14.550781 20.300781 -14.289062 C 20.171875 -14.140625 20.085938 -14.042969 20.035156 -13.992188 L 19.542969 -14.484375 L 20.066406 -14.027344 C 19.128906 -12.945312 17.914062 -11.703125 16.425781 -10.300781 C 14.734375 -8.710938 13.039062 -7.253906 11.34375 -5.933594 C 6.847656 -2.425781 3.378906 -0.675781 0.941406 -0.675781 C -0.0585938 -0.675781 -0.820312 -1.03125 -1.34375 -1.742188 C -1.769531 -2.320312 -1.980469 -3.085938 -1.980469 -4.027344 C -1.980469 -5.769531 -1.347656 -7.796875 -0.0742188 -10.105469 C 0.894531 -11.871094 2.089844 -13.566406 3.503906 -15.199219 C 4.789062 -16.660156 6.351562 -18.066406 8.179688 -19.40625 C 10.574219 -21.160156 12.53125 -22.039062 14.054688 -22.039062 C 14.445312 -22.039062 14.796875 -21.960938 15.117188 -21.808594 C 15.675781 -21.542969 15.953125 -21.128906 15.953125 -20.570312 C 15.953125 -20.207031 15.773438 -19.929688 15.414062 -19.738281 C 15.304688 -19.675781 15.121094 -19.605469 14.871094 -19.527344 C 14.527344 -19.414062 14.296875 -19.316406 14.179688 -19.226562 C 14.046875 -19.125 13.980469 -18.972656 13.980469 -18.769531 C 13.980469 -18.597656 14.046875 -18.464844 14.179688 -18.367188 C 14.347656 -18.242188 14.5625 -18.179688 14.828125 -18.179688 C 15.273438 -18.179688 15.671875 -18.332031 16.015625 -18.640625 C 16.359375 -18.941406 16.53125 -19.296875 16.53125 -19.710938 C 16.53125 -20.296875 16.257812 -20.796875 15.710938 -21.21875 C 15.164062 -21.636719 14.554688 -21.84375 13.882812 -21.84375 C 12.101562 -21.84375 10.164062 -21.386719 8.066406 -20.476562 C 6 -19.578125 4.066406 -18.363281 2.261719 -16.835938 C 0.402344 -15.257812 -1.0625 -13.558594 -2.136719 -11.738281 C -3.277344 -9.800781 -3.847656 -7.914062 -3.847656 -6.085938 C -3.847656 -4.4375 -3.421875 -3.121094 -2.570312 -2.136719 C -1.691406 -1.121094 -0.460938 -0.609375 1.113281 -0.609375 C 3.589844 -0.609375 6.914062 -2.347656 11.09375 -5.816406 C 13.796875 -8.066406 16.671875 -10.878906 19.707031 -14.265625 L 20.226562 -13.800781 L 19.648438 -14.183594 C 19.710938 -14.28125 19.890625 -14.488281 20.183594 -14.816406 C 20.410156 -15.066406 20.570312 -15.246094 20.65625 -15.347656 C 20.714844 -15.421875 20.761719 -15.476562 20.785156 -15.515625 L 20.785156 -15.511719 C 20.75 -15.4375 20.730469 -15.351562 20.730469 -15.257812 Z M 22.125 -15.257812 C 22.125 -15.042969 21.992188 -14.773438 21.726562 -14.457031 C 21.625 -14.339844 21.457031 -14.144531 21.214844 -13.878906 C 20.96875 -13.605469 20.832031 -13.449219 20.804688 -13.414062 L 20.777344 -13.371094 L 20.746094 -13.332031 C 17.660156 -9.898438 14.742188 -7.035156 11.984375 -4.746094 C 7.546875 -1.0625 3.925781 0.78125 1.113281 0.78125 C -0.886719 0.78125 -2.464844 0.113281 -3.625 -1.226562 C -4.699219 -2.472656 -5.238281 -4.09375 -5.238281 -6.085938 C -5.238281 -8.167969 -4.605469 -10.289062 -3.335938 -12.445312 C -2.183594 -14.402344 -0.621094 -16.21875 1.359375 -17.898438 C 3.269531 -19.515625 5.320312 -20.800781 7.507812 -21.753906 C 9.785156 -22.742188 11.910156 -23.238281 13.882812 -23.238281 C 14.871094 -23.238281 15.761719 -22.933594 16.558594 -22.324219 C 17.46875 -21.625 17.921875 -20.753906 17.921875 -19.710938 C 17.921875 -18.878906 17.59375 -18.171875 16.9375 -17.59375 C 16.328125 -17.054688 15.625 -16.789062 14.828125 -16.789062 C 14.257812 -16.789062 13.765625 -16.941406 13.351562 -17.246094 C 12.84375 -17.625 12.589844 -18.132812 12.589844 -18.769531 C 12.589844 -19.425781 12.835938 -19.945312 13.328125 -20.328125 C 13.570312 -20.515625 13.945312 -20.691406 14.445312 -20.851562 C 14.613281 -20.90625 14.71875 -20.945312 14.75 -20.960938 C 14.625 -20.894531 14.558594 -20.761719 14.558594 -20.570312 C 14.558594 -20.550781 14.566406 -20.53125 14.582031 -20.511719 C 14.574219 -20.523438 14.554688 -20.535156 14.515625 -20.550781 C 14.386719 -20.613281 14.234375 -20.644531 14.054688 -20.644531 C 12.835938 -20.644531 11.152344 -19.859375 9.003906 -18.285156 C 7.253906 -17 5.773438 -15.667969 4.554688 -14.285156 C 3.207031 -12.730469 2.070312 -11.113281 1.144531 -9.433594 C -0.0117188 -7.335938 -0.589844 -5.53125 -0.589844 -4.027344 C -0.589844 -3.386719 -0.464844 -2.902344 -0.21875 -2.566406 C 0.0234375 -2.234375 0.410156 -2.066406 0.941406 -2.066406 C 2.03125 -2.066406 3.457031 -2.542969 5.21875 -3.492188 C 6.789062 -4.335938 8.546875 -5.515625 10.488281 -7.03125 C 12.152344 -8.324219 13.8125 -9.753906 15.472656 -11.316406 C 16.925781 -12.683594 18.105469 -13.890625 19.015625 -14.941406 L 19.03125 -14.960938 L 19.050781 -14.976562 C 19.074219 -15.003906 19.140625 -15.078125 19.246094 -15.199219 C 19.503906 -15.5 19.710938 -15.722656 19.867188 -15.867188 C 20.238281 -16.210938 20.585938 -16.382812 20.914062 -16.382812 C 21.207031 -16.382812 21.46875 -16.292969 21.695312 -16.117188 C 21.980469 -15.894531 22.125 -15.605469 22.125 -15.257812 Z M 22.125 -15.257812 "/></g></g></g><g fill="#ffa888" fill-opacity="1"><g transform="translate(174.55349, 113.879213)"><g><path d="M 22.1875 -15.257812 C 22.1875 -15.019531 22.304688 -14.902344 22.542969 -14.902344 C 22.398438 -14.902344 21.820312 -14.375 20.808594 -13.316406 C 20.679688 -13.183594 20.59375 -13.09375 20.546875 -13.050781 C 19.464844 -11.964844 18.199219 -10.804688 16.75 -9.570312 C 15 -8.078125 13.289062 -6.734375 11.609375 -5.546875 C 7.09375 -2.355469 3.539062 -0.761719 0.941406 -0.761719 C -0.191406 -0.761719 -1.121094 -1.121094 -1.84375 -1.84375 C -2.5625 -2.566406 -2.925781 -3.492188 -2.925781 -4.628906 C -2.925781 -5.304688 -2.777344 -5.988281 -2.480469 -6.671875 C -2.28125 -7.136719 -1.960938 -7.695312 -1.523438 -8.355469 L -1.390625 -8.554688 L -1.164062 -8.632812 C 3.121094 -10.058594 6.488281 -11.46875 8.945312 -12.863281 C 13.089844 -15.210938 15.160156 -17.636719 15.160156 -20.140625 C 15.160156 -20.730469 14.914062 -21.191406 14.417969 -21.523438 C 13.929688 -21.851562 13.324219 -22.015625 12.597656 -22.015625 C 10.90625 -22.015625 8.742188 -21.234375 6.109375 -19.671875 C 3.75 -18.273438 1.886719 -16.816406 0.515625 -15.300781 C -0.988281 -13.691406 -2.132812 -12.238281 -2.917969 -10.941406 C -3.992188 -9.167969 -4.53125 -7.519531 -4.53125 -6 C -4.53125 -4.5625 -4.007812 -3.320312 -2.957031 -2.269531 C -1.90625 -1.222656 -0.664062 -0.695312 0.769531 -0.695312 C 2.207031 -0.695312 3.996094 -1.246094 6.140625 -2.339844 C 8.039062 -3.3125 10.125 -4.671875 12.402344 -6.414062 C 14.359375 -7.914062 16.296875 -9.570312 18.214844 -11.390625 C 19.910156 -12.996094 21.289062 -14.433594 22.351562 -15.703125 L 22.882812 -15.257812 Z M 23.582031 -15.257812 L 23.582031 -15.003906 L 23.417969 -14.808594 C 22.320312 -13.5 20.90625 -12.023438 19.171875 -10.378906 C 17.21875 -8.527344 15.246094 -6.835938 13.246094 -5.308594 C 8.023438 -1.304688 3.863281 0.695312 0.769531 0.695312 C -1.050781 0.695312 -2.621094 0.0351562 -3.941406 -1.285156 C -5.265625 -2.609375 -5.925781 -4.179688 -5.925781 -6 C -5.925781 -7.78125 -5.320312 -9.667969 -4.109375 -11.664062 C -3.273438 -13.042969 -2.074219 -14.566406 -0.515625 -16.238281 C 0.949219 -17.855469 2.921875 -19.398438 5.398438 -20.867188 C 8.25 -22.5625 10.652344 -23.410156 12.597656 -23.410156 C 13.605469 -23.410156 14.472656 -23.164062 15.195312 -22.679688 C 16.101562 -22.070312 16.550781 -21.226562 16.550781 -20.140625 C 16.550781 -17.097656 14.246094 -14.265625 9.632812 -11.652344 C 7.097656 -10.214844 3.648438 -8.765625 -0.722656 -7.308594 L -0.941406 -7.972656 L -0.363281 -7.585938 C -0.757812 -6.996094 -1.035156 -6.507812 -1.203125 -6.121094 C -1.421875 -5.613281 -1.53125 -5.113281 -1.53125 -4.628906 C -1.53125 -3.878906 -1.308594 -3.277344 -0.859375 -2.828125 C -0.40625 -2.378906 0.191406 -2.152344 0.941406 -2.152344 C 3.242188 -2.152344 6.53125 -3.664062 10.804688 -6.6875 C 12.449219 -7.847656 14.128906 -9.164062 15.84375 -10.628906 C 17.265625 -11.839844 18.503906 -12.976562 19.5625 -14.035156 C 19.601562 -14.074219 19.679688 -14.15625 19.804688 -14.28125 C 20.300781 -14.800781 20.695312 -15.191406 20.992188 -15.453125 C 21.625 -16.015625 22.144531 -16.296875 22.542969 -16.296875 C 22.820312 -16.296875 23.0625 -16.191406 23.269531 -15.984375 C 23.476562 -15.777344 23.582031 -15.535156 23.582031 -15.257812 Z M 14.839844 -20.398438 C 14.839844 -19.253906 14.28125 -17.976562 13.167969 -16.570312 C 12.425781 -15.636719 11.5 -14.707031 10.386719 -13.777344 C 9.152344 -12.761719 7.625 -11.828125 5.796875 -10.972656 C 4.726562 -10.472656 3.097656 -9.816406 0.917969 -9.003906 C 0.539062 -8.863281 0.257812 -8.761719 0.0742188 -8.691406 L -1.90625 -7.949219 L -0.753906 -9.722656 C 1.007812 -12.441406 2.90625 -14.925781 4.9375 -17.167969 C 8.078125 -20.644531 10.660156 -22.378906 12.683594 -22.378906 C 13.257812 -22.378906 13.742188 -22.222656 14.136719 -21.90625 C 14.605469 -21.53125 14.839844 -21.03125 14.839844 -20.398438 Z M 13.445312 -20.398438 C 13.445312 -20.792969 13.191406 -20.988281 12.683594 -20.988281 C 11.074219 -20.988281 8.835938 -19.402344 5.96875 -16.234375 C 3.988281 -14.046875 2.136719 -11.621094 0.414062 -8.964844 L -0.171875 -9.34375 L -0.414062 -9.996094 C -0.226562 -10.066406 0.0546875 -10.171875 0.433594 -10.3125 C 2.578125 -11.109375 4.167969 -11.75 5.207031 -12.234375 C 6.929688 -13.039062 8.359375 -13.910156 9.496094 -14.847656 C 10.535156 -15.714844 11.394531 -16.574219 12.074219 -17.433594 C 12.988281 -18.589844 13.445312 -19.578125 13.445312 -20.398438 Z M 13.445312 -20.398438 "/></g></g></g><g fill="#ffa888" fill-opacity="1"><g transform="translate(196.749723, 113.879213)"><g><path d="M 7.582031 1.777344 C 4.648438 2.714844 1.40625 4.164062 -2.136719 6.125 C -5.472656 7.972656 -8.445312 9.914062 -11.054688 11.949219 C -12.777344 13.292969 -14.378906 14.917969 -15.863281 16.828125 C -17.679688 19.167969 -18.585938 21.097656 -18.585938 22.625 C -18.585938 23.269531 -18.347656 23.8125 -17.867188 24.257812 C -17.382812 24.707031 -16.800781 24.929688 -16.113281 24.929688 C -14.515625 24.929688 -12.34375 23.929688 -9.605469 21.925781 C -7.257812 20.210938 -4.550781 17.800781 -1.492188 14.691406 C 2.257812 10.886719 6.488281 6.070312 11.199219 0.246094 L 11.320312 0.101562 L 11.492188 0.0351562 C 16.097656 -1.722656 19.921875 -3.652344 22.96875 -5.757812 C 25.917969 -7.792969 29.089844 -10.660156 32.484375 -14.355469 L 32.496094 -14.367188 L 32.503906 -14.378906 C 32.761719 -14.636719 32.96875 -14.855469 33.121094 -15.03125 C 33.238281 -15.171875 33.328125 -15.285156 33.386719 -15.378906 C 33.410156 -15.414062 33.425781 -15.441406 33.433594 -15.460938 C 33.421875 -15.433594 33.414062 -15.394531 33.414062 -15.339844 C 33.414062 -15.277344 33.445312 -15.21875 33.5 -15.160156 C 33.558594 -15.101562 33.621094 -15.074219 33.683594 -15.074219 C 33.753906 -15.074219 33.8125 -15.085938 33.859375 -15.105469 C 33.859375 -15.105469 33.851562 -15.101562 33.835938 -15.089844 C 33.777344 -15.046875 33.699219 -14.980469 33.605469 -14.882812 C 33.46875 -14.75 33.28125 -14.539062 33.035156 -14.25 C 32.917969 -14.117188 32.839844 -14.03125 32.804688 -13.992188 L 32.3125 -14.484375 L 32.828125 -14.019531 C 29.789062 -10.628906 26.847656 -7.949219 24.007812 -5.984375 C 21.15625 -4.007812 17.605469 -2.195312 13.363281 -0.550781 L 10.992188 0.367188 L 29.621094 -23.316406 L 30.167969 -22.882812 L 30.246094 -22.191406 L 25.53125 -21.675781 L 25.457031 -22.371094 L 26 -21.9375 C 23.679688 -18.996094 21.683594 -16.574219 20.011719 -14.667969 C 17.734375 -12.070312 15.53125 -9.808594 13.410156 -7.882812 C 12.046875 -6.601562 10.632812 -5.402344 9.164062 -4.289062 C 6.816406 -2.507812 5.105469 -1.617188 4.027344 -1.617188 C 3.441406 -1.617188 2.972656 -1.8125 2.621094 -2.199219 C 2.296875 -2.5625 2.132812 -3.027344 2.132812 -3.601562 C 2.132812 -4.433594 2.625 -5.550781 3.605469 -6.949219 C 4.164062 -7.742188 5.207031 -9.046875 6.734375 -10.863281 C 8.671875 -13.164062 10.015625 -14.878906 10.765625 -16.003906 C 11.980469 -17.820312 12.589844 -19.285156 12.589844 -20.398438 C 12.589844 -20.925781 12.339844 -21.398438 11.839844 -21.8125 C 11.339844 -22.234375 10.792969 -22.445312 10.199219 -22.445312 C 9.003906 -22.445312 7.652344 -21.863281 6.144531 -20.703125 C 5.234375 -20.003906 4.007812 -18.835938 2.460938 -17.195312 C 2.15625 -16.871094 1.929688 -16.636719 1.789062 -16.488281 C 1.40625 -16.105469 1.078125 -15.761719 0.808594 -15.457031 C 0.589844 -15.207031 0.417969 -15 0.296875 -14.832031 C 0.238281 -14.75 0.199219 -14.683594 0.171875 -14.632812 L 0.164062 -14.617188 C 0.175781 -14.652344 0.183594 -14.695312 0.183594 -14.742188 C 0.183594 -14.976562 0.0625 -15.09375 -0.171875 -15.09375 C -0.25 -15.09375 -0.308594 -15.082031 -0.355469 -15.0625 C -0.335938 -15.070312 -0.308594 -15.089844 -0.269531 -15.117188 C -0.160156 -15.195312 -0.0117188 -15.320312 0.175781 -15.492188 C 0.429688 -15.726562 0.90625 -16.199219 1.609375 -16.90625 C 3.144531 -18.449219 4.316406 -19.558594 5.128906 -20.234375 C 6.640625 -21.492188 7.847656 -22.125 8.742188 -22.125 C 9.222656 -22.125 9.621094 -22.007812 9.9375 -21.773438 C 10.347656 -21.472656 10.554688 -21.042969 10.554688 -20.484375 C 10.554688 -19.636719 10.074219 -18.527344 9.117188 -17.15625 C 8.574219 -16.375 7.558594 -15.097656 6.070312 -13.324219 C 4.15625 -11.046875 2.824219 -9.339844 2.082031 -8.210938 C 0.871094 -6.375 0.269531 -4.867188 0.269531 -3.683594 C 0.269531 -2.972656 0.480469 -2.421875 0.90625 -2.039062 C 1.328125 -1.65625 1.910156 -1.46875 2.65625 -1.46875 C 3.691406 -1.46875 4.964844 -1.910156 6.476562 -2.792969 C 7.390625 -3.328125 8.699219 -4.242188 10.398438 -5.539062 C 11.027344 -6.019531 11.480469 -6.359375 11.761719 -6.5625 L 12.746094 -5.609375 L 7.8125 1.703125 Z M 7.160156 0.449219 L 7.371094 1.113281 L 6.792969 0.726562 L 11.59375 -6.390625 L 12.171875 -6 L 12.578125 -5.433594 C 12.308594 -5.238281 11.863281 -4.90625 11.242188 -4.433594 C 9.5 -3.101562 8.144531 -2.152344 7.179688 -1.589844 C 5.453125 -0.578125 3.945312 -0.0742188 2.65625 -0.0742188 C 1.554688 -0.0742188 0.660156 -0.382812 -0.0273438 -1.003906 C -0.757812 -1.664062 -1.125 -2.558594 -1.125 -3.683594 C -1.125 -5.148438 -0.445312 -6.910156 0.917969 -8.976562 C 1.691406 -10.152344 3.054688 -11.902344 5.003906 -14.222656 C 6.464844 -15.960938 7.457031 -17.207031 7.976562 -17.949219 C 8.765625 -19.085938 9.160156 -19.929688 9.160156 -20.484375 C 9.160156 -20.570312 9.144531 -20.628906 9.109375 -20.652344 C 9.039062 -20.703125 8.917969 -20.730469 8.742188 -20.730469 C 8.179688 -20.730469 7.273438 -20.207031 6.019531 -19.164062 C 5.242188 -18.515625 4.101562 -17.4375 2.597656 -15.925781 C 1.882812 -15.203125 1.386719 -14.71875 1.117188 -14.46875 C 0.5625 -13.957031 0.132812 -13.703125 -0.171875 -13.703125 C -0.449219 -13.703125 -0.691406 -13.804688 -0.898438 -14.011719 C -1.105469 -14.222656 -1.210938 -14.464844 -1.210938 -14.742188 C -1.210938 -15.21875 -0.546875 -16.125 0.785156 -17.453125 C 0.921875 -17.597656 1.144531 -17.832031 1.449219 -18.152344 C 3.042969 -19.84375 4.324219 -21.0625 5.292969 -21.808594 C 7.050781 -23.160156 8.6875 -23.835938 10.199219 -23.835938 C 11.128906 -23.835938 11.972656 -23.519531 12.734375 -22.882812 C 13.566406 -22.1875 13.980469 -21.359375 13.980469 -20.398438 C 13.980469 -19.003906 13.296875 -17.28125 11.921875 -15.226562 C 11.144531 -14.0625 9.769531 -12.308594 7.800781 -9.96875 C 6.296875 -8.183594 5.28125 -6.910156 4.746094 -6.148438 C 3.929688 -4.992188 3.523438 -4.140625 3.523438 -3.601562 C 3.523438 -3.207031 3.691406 -3.011719 4.027344 -3.011719 C 4.792969 -3.011719 6.226562 -3.804688 8.320312 -5.398438 C 9.75 -6.480469 11.132812 -7.65625 12.472656 -8.914062 C 14.558594 -10.804688 16.722656 -13.03125 18.964844 -15.585938 C 20.621094 -17.472656 22.601562 -19.878906 24.910156 -22.800781 L 25.089844 -23.03125 L 31.742188 -23.757812 L 13.660156 -0.769531 L 13.113281 -1.199219 L 12.863281 -1.847656 C 17 -3.453125 20.453125 -5.214844 23.214844 -7.128906 C 25.964844 -9.035156 28.824219 -11.640625 31.792969 -14.949219 L 31.804688 -14.964844 L 31.820312 -14.976562 C 31.832031 -14.988281 31.882812 -15.046875 31.972656 -15.15625 C 32.246094 -15.472656 32.460938 -15.710938 32.621094 -15.871094 C 33.019531 -16.269531 33.375 -16.464844 33.683594 -16.464844 C 34.003906 -16.464844 34.273438 -16.359375 34.484375 -16.144531 C 34.699219 -15.929688 34.808594 -15.664062 34.808594 -15.339844 C 34.808594 -14.921875 34.367188 -14.269531 33.488281 -13.390625 L 32.996094 -13.882812 L 33.511719 -13.414062 C 30.042969 -9.640625 26.796875 -6.707031 23.761719 -4.613281 C 20.621094 -2.445312 16.699219 -0.460938 11.992188 1.335938 L 11.742188 0.6875 L 12.285156 1.125 C 7.542969 6.980469 3.28125 11.828125 -0.5 15.667969 C -7.492188 22.773438 -12.695312 26.324219 -16.113281 26.324219 C -17.164062 26.324219 -18.0625 25.976562 -18.816406 25.28125 C -19.59375 24.5625 -19.980469 23.675781 -19.980469 22.625 C -19.980469 20.78125 -18.976562 18.5625 -16.960938 15.976562 C -15.40625 13.972656 -13.722656 12.265625 -11.914062 10.851562 C -9.246094 8.769531 -6.210938 6.789062 -2.8125 4.90625 C 0.8125 2.902344 4.136719 1.417969 7.160156 0.449219 Z M 6.570312 3.402344 C 5.40625 5.054688 4.082031 6.835938 2.601562 8.742188 C 0.515625 11.425781 -1.488281 13.832031 -3.402344 15.957031 C -8.964844 22.125 -13.171875 25.207031 -16.027344 25.207031 C -16.820312 25.207031 -17.476562 24.949219 -18 24.425781 C -18.519531 23.90625 -18.78125 23.246094 -18.78125 22.457031 C -18.78125 20.71875 -17.503906 18.457031 -14.945312 15.664062 C -13.414062 13.996094 -11.554688 12.25 -9.359375 10.433594 C -7.699219 9.058594 -5.265625 7.542969 -2.066406 5.882812 C 0.671875 4.46875 3.277344 3.289062 5.753906 2.347656 L 7.878906 1.542969 Z M 5.429688 2.597656 L 6 3 L 6.246094 3.652344 C 3.824219 4.570312 1.265625 5.730469 -1.425781 7.121094 C -4.539062 8.730469 -6.886719 10.195312 -8.46875 11.507812 C -10.617188 13.28125 -12.429688 14.980469 -13.917969 16.605469 C -16.230469 19.132812 -17.386719 21.082031 -17.386719 22.457031 C -17.386719 22.863281 -17.261719 23.191406 -17.011719 23.441406 C -16.761719 23.691406 -16.433594 23.816406 -16.027344 23.816406 C -14.757812 23.816406 -13.039062 22.960938 -10.871094 21.253906 C -8.992188 19.773438 -6.847656 17.695312 -4.4375 15.023438 C -2.542969 12.925781 -0.5625 10.546875 1.5 7.886719 C 2.96875 5.996094 4.277344 4.234375 5.429688 2.597656 Z M 5.429688 2.597656 "/></g></g></g><g fill="#ffb1b1" fill-opacity="1"><g transform="translate(28.521119, 113.879213)"><g><path d="M 112.535156 -61.367188 C 112.535156 -62.308594 111.761719 -63.253906 110.734375 -63.253906 C 108.164062 -63.253906 100.792969 -56.480469 98.992188 -54.851562 C 93.507812 -49.796875 88.621094 -44.054688 83.738281 -38.484375 C 76.195312 -29.910156 68.910156 -21.167969 61.539062 -12.425781 C 60.765625 -11.484375 55.453125 -5.058594 54.679688 -5.058594 C 54.167969 -5.058594 53.996094 -5.570312 53.996094 -6 C 53.996094 -7.800781 58.882812 -15.511719 59.824219 -16.96875 C 67.710938 -29.054688 76.535156 -40.453125 84.9375 -52.195312 C 85.707031 -53.308594 89.050781 -57.511719 89.050781 -58.96875 C 89.050781 -60.082031 88.109375 -60.9375 86.992188 -60.9375 C 84.164062 -60.9375 78.335938 -56.054688 76.453125 -54.339844 C 68.136719 -46.796875 60.339844 -38.738281 52.453125 -30.769531 C 45.339844 -23.65625 38.140625 -16.113281 29.484375 -10.96875 C 22.542969 -6.855469 13.542969 -3.171875 5.398438 -3.171875 C -2.914062 -3.171875 -8.398438 -6.515625 -10.027344 -14.742188 C -6.515625 -13.800781 -3.085938 -13.199219 0.601562 -13.199219 C 11.398438 -13.199219 23.3125 -17.398438 32.226562 -23.484375 C 38.226562 -27.597656 45.167969 -35.484375 45.167969 -43.195312 C 45.167969 -50.308594 37.796875 -52.796875 31.796875 -52.796875 C 21.769531 -52.796875 10.285156 -47.226562 2.742188 -40.882812 C -5.484375 -33.941406 -9.683594 -27.253906 -11.3125 -16.542969 C -16.796875 -18.941406 -19.285156 -23.398438 -19.285156 -29.3125 C -19.285156 -39.167969 -10.371094 -47.480469 -1.800781 -50.910156 C 1.800781 -52.367188 5.65625 -53.140625 9.511719 -53.140625 C 13.882812 -53.140625 15.855469 -52.625 16.542969 -52.625 C 16.796875 -52.625 17.226562 -52.710938 17.226562 -53.054688 C 17.226562 -53.824219 14.570312 -54.339844 10.199219 -54.339844 C 6.171875 -54.339844 2.226562 -53.566406 -1.542969 -52.195312 C -10.886719 -48.769531 -20.570312 -40.367188 -20.570312 -29.65625 C -20.570312 -23.140625 -17.484375 -17.742188 -11.3125 -15.257812 C -11.3125 -5.65625 -3.855469 0.171875 5.3125 0.171875 C 15.855469 0.171875 28.796875 -7.027344 37.027344 -13.199219 C 46.28125 -20.140625 60.9375 -38.484375 73.707031 -50.394531 C 75.507812 -52.109375 84.335938 -59.566406 86.652344 -59.566406 C 87.078125 -59.566406 87.59375 -59.308594 87.59375 -58.796875 C 87.59375 -57.425781 80.90625 -49.96875 79.792969 -48.683594 C 74.910156 -43.109375 70.109375 -37.539062 65.308594 -31.882812 C 60.851562 -26.484375 47.652344 -11.570312 47.652344 -4.113281 C 47.652344 -2.570312 47.996094 0 50.054688 0 C 53.394531 0 58.796875 -7.113281 60.765625 -9.429688 C 63.679688 -12.855469 66.59375 -16.457031 69.507812 -19.96875 C 77.738281 -29.996094 86.050781 -40.109375 95.222656 -49.28125 C 97.363281 -51.425781 107.820312 -61.882812 110.132812 -61.882812 C 110.734375 -61.882812 111.078125 -61.453125 111.078125 -60.851562 C 111.078125 -58.023438 71.910156 -24.253906 71.910156 -5.398438 C 71.910156 -2.828125 73.109375 0.0859375 76.109375 0.0859375 C 80.566406 0.0859375 89.820312 -8.226562 92.820312 -11.398438 C 93.164062 -11.828125 96.335938 -15.085938 96.335938 -15.597656 C 96.335938 -15.855469 96.25 -16.027344 95.992188 -16.027344 C 95.308594 -16.027344 84.078125 -2.914062 79.109375 -2.914062 C 77.824219 -2.914062 77.652344 -4.199219 77.652344 -5.226562 C 77.652344 -7.800781 81.765625 -16.113281 82.964844 -18.683594 C 89.480469 -32.398438 99.59375 -44.398438 109.191406 -56.136719 C 110.21875 -57.339844 112.535156 -59.652344 112.535156 -61.367188 Z M 43.882812 -42.769531 C 43.882812 -35.824219 37.195312 -28.285156 31.796875 -24.597656 C 23.484375 -19.027344 11.570312 -14.398438 1.457031 -14.398438 C -2.484375 -14.398438 -6.171875 -15 -9.941406 -16.027344 C -7.972656 -26.914062 -4.628906 -32.910156 3.769531 -40.28125 C 11.226562 -46.882812 21.683594 -51.511719 31.710938 -51.511719 C 37.453125 -51.511719 43.882812 -49.625 43.882812 -42.769531 Z M 43.882812 -42.769531 "/></g></g></g><g fill="#ffb1b1" fill-opacity="1"><g transform="translate(123.733538, 113.879213)"><g><path d="M 17.65625 -19.457031 C 17.742188 -19.710938 17.828125 -20.054688 17.828125 -20.3125 C 17.828125 -21.855469 15.769531 -22.285156 14.570312 -22.285156 C 7.199219 -22.285156 -6.941406 -12.683594 -6.941406 -4.714844 C -6.941406 -1.886719 -4.800781 0 -2.058594 0 C 1.199219 0 5.140625 -4.027344 7.371094 -6.085938 C 7.027344 -5.058594 6.597656 -3.769531 6.597656 -2.742188 C 6.597656 -0.855469 8.140625 0 9.855469 0 C 14.914062 0 23.484375 -7.800781 26.914062 -11.140625 C 27.511719 -11.65625 30.683594 -14.484375 30.683594 -15.171875 C 30.683594 -15.425781 30.597656 -15.597656 30.339844 -15.597656 C 29.910156 -15.597656 15.683594 -1.457031 11.3125 -1.457031 C 10.714844 -1.457031 9.941406 -1.800781 9.941406 -2.570312 C 9.941406 -3.601562 12.597656 -7.113281 13.285156 -7.972656 L 24.425781 -22.027344 L 19.542969 -21.769531 Z M 16.113281 -19.371094 C 16.113281 -15.511719 1.628906 -1.027344 -2.058594 -1.027344 C -2.914062 -1.027344 -3.683594 -1.972656 -3.683594 -2.828125 C -3.683594 -6 2.65625 -12.597656 4.714844 -14.65625 C 6.855469 -16.796875 11.054688 -21.085938 14.398438 -21.085938 C 15.339844 -21.085938 16.113281 -20.3125 16.113281 -19.371094 Z M 16.113281 -19.371094 "/></g></g></g><g fill="#ffb1b1" fill-opacity="1"><g transform="translate(153.899855, 113.879213)"><g><path d="M 21.425781 -15.257812 C 21.425781 -15.511719 21.167969 -15.683594 20.914062 -15.683594 C 20.484375 -15.683594 19.796875 -14.742188 19.542969 -14.484375 C 16.199219 -10.628906 6.085938 -1.371094 0.941406 -1.371094 C -0.6875 -1.371094 -1.285156 -2.570312 -1.285156 -4.027344 C -1.285156 -7.628906 1.800781 -12.171875 4.027344 -14.742188 C 5.914062 -16.882812 10.96875 -21.339844 14.054688 -21.339844 C 14.484375 -21.339844 15.257812 -21.167969 15.257812 -20.570312 C 15.257812 -20.054688 13.285156 -20.3125 13.285156 -18.769531 C 13.285156 -17.914062 14.054688 -17.484375 14.828125 -17.484375 C 16.027344 -17.484375 17.226562 -18.425781 17.226562 -19.710938 C 17.226562 -21.425781 15.425781 -22.542969 13.882812 -22.542969 C 6.257812 -22.542969 -4.542969 -14.226562 -4.542969 -6.085938 C -4.542969 -2.570312 -2.570312 0.0859375 1.113281 0.0859375 C 7.199219 0.0859375 16.457031 -9.597656 20.226562 -13.800781 C 20.398438 -14.054688 21.425781 -15.085938 21.425781 -15.257812 Z M 21.425781 -15.257812 "/></g></g></g><g fill="#ffb1b1" fill-opacity="1"><g transform="translate(174.55349, 113.879213)"><g><path d="M 22.882812 -15.257812 C 22.882812 -15.425781 22.710938 -15.597656 22.542969 -15.597656 C 21.941406 -15.597656 20.484375 -13.96875 20.054688 -13.542969 C 16.371094 -9.855469 6.515625 -1.457031 0.941406 -1.457031 C -0.941406 -1.457031 -2.226562 -2.742188 -2.226562 -4.628906 C -2.226562 -5.914062 -1.628906 -6.941406 -0.941406 -7.972656 C 3.941406 -9.597656 15.855469 -13.714844 15.855469 -20.140625 C 15.855469 -21.941406 14.140625 -22.710938 12.597656 -22.710938 C 8.65625 -22.710938 2.484375 -18.511719 0 -15.769531 C -2.398438 -13.199219 -5.226562 -9.683594 -5.226562 -6 C -5.226562 -2.742188 -2.484375 0 0.769531 0 C 7.371094 0 18.941406 -10.542969 22.882812 -15.257812 Z M 14.140625 -20.398438 C 14.140625 -18.171875 11.484375 -15.597656 9.941406 -14.3125 C 7.027344 -11.914062 3.257812 -10.628906 -0.171875 -9.34375 C 1.886719 -12.511719 8.484375 -21.683594 12.683594 -21.683594 C 13.457031 -21.683594 14.140625 -21.253906 14.140625 -20.398438 Z M 14.140625 -20.398438 "/></g></g></g><g fill="#ffb1b1" fill-opacity="1"><g transform="translate(196.749723, 113.879213)"><g><path d="M 7.371094 1.113281 C 1.199219 3.085938 -6.429688 7.457031 -11.484375 11.398438 C -14.226562 13.542969 -19.285156 18.855469 -19.285156 22.625 C -19.285156 24.339844 -17.828125 25.625 -16.113281 25.625 C -8.570312 25.625 7.371094 6.085938 11.742188 0.6875 C 21.167969 -2.914062 26.226562 -6.515625 32.996094 -13.882812 C 33.253906 -14.140625 34.113281 -15 34.113281 -15.339844 C 34.113281 -15.597656 33.941406 -15.769531 33.683594 -15.769531 C 33.339844 -15.769531 32.484375 -14.65625 32.3125 -14.484375 C 26.3125 -7.800781 21.511719 -4.457031 13.113281 -1.199219 L 30.167969 -22.882812 L 25.457031 -22.371094 C 21.597656 -17.484375 17.570312 -12.597656 12.941406 -8.398438 C 11.484375 -7.027344 6.171875 -2.3125 4.027344 -2.3125 C 3.257812 -2.3125 2.828125 -2.828125 2.828125 -3.601562 C 2.828125 -7.027344 13.285156 -15.257812 13.285156 -20.398438 C 13.285156 -21.941406 11.65625 -23.140625 10.199219 -23.140625 C 6.769531 -23.140625 3.429688 -19.199219 1.285156 -16.96875 C 1.027344 -16.714844 -0.515625 -15.171875 -0.515625 -14.742188 C -0.515625 -14.570312 -0.34375 -14.398438 -0.171875 -14.398438 C 0.601562 -14.398438 6.171875 -21.425781 8.742188 -21.425781 C 9.34375 -21.425781 9.855469 -21.167969 9.855469 -20.484375 C 9.855469 -16.96875 -0.429688 -9.085938 -0.429688 -3.683594 C -0.429688 -1.800781 0.855469 -0.769531 2.65625 -0.769531 C 5.828125 -0.769531 9.683594 -4.199219 12.171875 -6 Z M 6 3 C 2.742188 7.628906 -9.855469 24.511719 -16.027344 24.511719 C -17.226562 24.511719 -18.085938 23.65625 -18.085938 22.457031 C -18.085938 18.855469 -11.398438 13.027344 -8.914062 10.96875 C -5.398438 8.054688 1.714844 4.628906 6 3 Z M 6 3 "/></g></g></g></svg>