<svg xmlns="http://www.w3.org/2000/svg" xmlns:xlink="http://www.w3.org/1999/xlink" width="263" zoomAndPan="magnify" viewBox="0 0 197.25 215.999996" height="288" preserveAspectRatio="xMidYMid meet" version="1.0"><defs><g/><clipPath id="995333c24a"><rect x="0" width="175" y="0" height="140"/></clipPath></defs><g transform="matrix(1, 0, 0, 1, 15, 62)"><g clip-path="url(#995333c24a)"><g fill="#f16f81" fill-opacity="1"><g transform="translate(12.656688, 49.55045)"><g><path d="M 19.984375 15.109375 C 18.992188 15.109375 17.992188 14.867188 16.984375 14.390625 C 15.972656 13.910156 15.117188 13.273438 14.421875 12.484375 C 13.722656 11.691406 13.375 10.84375 13.375 9.9375 C 13.375 9.101562 13.789062 8.6875 14.625 8.6875 C 14.78125 8.6875 14.925781 8.691406 15.0625 8.703125 C 15.207031 8.722656 15.359375 8.753906 15.515625 8.796875 C 15.992188 10.503906 16.488281 11.765625 17 12.578125 C 17.519531 13.390625 18.570312 13.796875 20.15625 13.796875 C 22.613281 13.796875 25.300781 12.109375 28.21875 8.734375 C 31.132812 5.367188 34.4375 0.394531 38.125 -6.1875 L 48.828125 -25.28125 L 42.640625 -18.671875 C 40.097656 -15.972656 37.992188 -13.769531 36.328125 -12.0625 C 34.671875 -10.363281 33.441406 -9.117188 32.640625 -8.328125 C 31.210938 -6.898438 29.804688 -5.570312 28.421875 -4.34375 C 27.035156 -3.113281 25.65625 -2.117188 24.28125 -1.359375 C 22.914062 -0.609375 21.519531 -0.234375 20.09375 -0.234375 C 17.832031 -0.234375 16.703125 -1.5625 16.703125 -4.21875 C 16.703125 -7.394531 18.050781 -10.664062 20.75 -14.03125 C 21.738281 -15.21875 22.726562 -16.40625 23.71875 -17.59375 C 24.71875 -18.789062 25.710938 -20.003906 26.703125 -21.234375 C 29.910156 -25.273438 32.269531 -28.582031 33.78125 -31.15625 C 34.332031 -32.144531 34.753906 -33.015625 35.046875 -33.765625 C 35.347656 -34.523438 35.5 -35.203125 35.5 -35.796875 C 35.5 -36.671875 35.125 -37.316406 34.375 -37.734375 C 33.625 -38.148438 32.414062 -38.359375 30.75 -38.359375 C 26.539062 -38.359375 20.734375 -35.820312 13.328125 -30.75 C 11.578125 -29.59375 9.925781 -28.179688 8.375 -26.515625 C 6.832031 -24.859375 5.585938 -23.113281 4.640625 -21.28125 C 3.691406 -19.457031 3.21875 -17.695312 3.21875 -16 C 3.21875 -14.25 3.738281 -12.988281 4.78125 -12.21875 C 5.832031 -11.445312 7.132812 -11.0625 8.6875 -11.0625 C 10.707031 -11.0625 12.945312 -11.929688 15.40625 -13.671875 C 18.300781 -15.617188 19.925781 -16.648438 20.28125 -16.765625 C 19.882812 -15.296875 18.316406 -13.691406 15.578125 -11.953125 C 12.566406 -10.085938 9.753906 -9.15625 7.140625 -9.15625 C 5.078125 -9.15625 3.507812 -9.867188 2.4375 -11.296875 C 1.363281 -12.722656 0.828125 -14.390625 0.828125 -16.296875 C 0.828125 -21.679688 4.773438 -27.191406 12.671875 -32.828125 C 14.253906 -33.972656 16.164062 -35.039062 18.40625 -36.03125 C 20.644531 -37.03125 22.929688 -37.835938 25.265625 -38.453125 C 27.609375 -39.066406 29.710938 -39.375 31.578125 -39.375 C 33.316406 -39.375 34.820312 -39.035156 36.09375 -38.359375 C 37.363281 -37.679688 38 -36.59375 38 -35.09375 C 38 -33.257812 36.828125 -30.539062 34.484375 -26.9375 C 33.492188 -25.394531 32.132812 -23.492188 30.40625 -21.234375 C 28.6875 -18.972656 26.597656 -16.375 24.140625 -13.4375 C 23.148438 -12.289062 22.238281 -10.785156 21.40625 -8.921875 C 20.570312 -7.097656 20.15625 -5.628906 20.15625 -4.515625 C 20.15625 -3.441406 20.570312 -2.90625 21.40625 -2.90625 C 22.28125 -2.90625 23.570312 -3.519531 25.28125 -4.75 C 30.113281 -8.207031 35.085938 -12.550781 40.203125 -17.78125 C 44.722656 -22.375 48.113281 -26.335938 50.375 -29.671875 C 52 -32.015625 53.722656 -33.1875 55.546875 -33.1875 C 56.179688 -33.1875 56.5 -32.988281 56.5 -32.59375 C 56.5 -32.507812 56.488281 -32.425781 56.46875 -32.34375 C 56.445312 -32.269531 56.414062 -32.191406 56.375 -32.109375 C 54.269531 -28.421875 51.523438 -23.679688 48.140625 -17.890625 C 44.753906 -12.109375 40.703125 -5.273438 35.984375 2.609375 C 34.671875 4.753906 33.140625 6.773438 31.390625 8.671875 C 29.648438 10.578125 27.804688 12.125 25.859375 13.3125 C 23.921875 14.507812 21.960938 15.109375 19.984375 15.109375 Z M 19.984375 15.109375 "/></g></g></g><g fill="#f16f81" fill-opacity="1"><g transform="translate(65.10504, 49.55045)"><g><path d="M 2.5625 0.125 C 1.570312 0.125 0.796875 -0.335938 0.234375 -1.265625 C -0.316406 -2.203125 -0.59375 -3.109375 -0.59375 -3.984375 C -0.59375 -6.359375 1.128906 -9.6875 4.578125 -13.96875 C 8.066406 -18.289062 10.882812 -20.453125 13.03125 -20.453125 C 15.050781 -20.453125 16.0625 -19.382812 16.0625 -17.25 C 16.0625 -16.925781 16.03125 -16.585938 15.96875 -16.234375 C 15.90625 -15.878906 15.835938 -15.503906 15.765625 -15.109375 C 15.835938 -14.984375 16.035156 -14.921875 16.359375 -14.921875 C 17.421875 -14.921875 18.6875 -15.300781 20.15625 -16.0625 C 20.113281 -15.382812 18.550781 -14.410156 15.46875 -13.140625 C 15.894531 -11.835938 14.582031 -9.34375 11.53125 -5.65625 C 8.40625 -1.800781 5.734375 0.125 3.515625 0.125 Z M 3.625 -1.671875 C 5.332031 -1.671875 7.515625 -3.234375 10.171875 -6.359375 C 12.742188 -9.410156 14.03125 -11.613281 14.03125 -12.96875 C 13.394531 -13.320312 12.601562 -14.234375 11.65625 -15.703125 C 10.3125 -15.703125 8.367188 -14.078125 5.828125 -10.828125 C 3.328125 -7.648438 2.117188 -5.210938 2.203125 -3.515625 C 2.242188 -2.285156 2.71875 -1.671875 3.625 -1.671875 Z M 3.625 -1.671875 "/></g></g></g><g fill="#f16f81" fill-opacity="1"><g transform="translate(81.814781, 49.55045)"><g><path d="M 2.796875 0.65625 C 1.015625 0.65625 0.125 -0.472656 0.125 -2.734375 C 0.125 -3.609375 0.390625 -4.648438 0.921875 -5.859375 C 1.453125 -7.066406 2.21875 -8.34375 3.21875 -9.6875 C 3.21875 -9.6875 2.859375 -9.347656 2.140625 -8.671875 C 1.429688 -8.003906 0.617188 -7.15625 -0.296875 -6.125 C -0.453125 -5.96875 -0.648438 -5.890625 -0.890625 -5.890625 C -1.046875 -5.890625 -1.125 -5.988281 -1.125 -6.1875 C -1.125 -6.382812 -0.945312 -6.722656 -0.59375 -7.203125 L 7.609375 -16.828125 C 8.640625 -18.015625 9.769531 -18.609375 11 -18.609375 C 11.914062 -18.609375 12.375 -18.253906 12.375 -17.546875 C 12.375 -17.265625 12.253906 -17.003906 12.015625 -16.765625 C 11.253906 -16.054688 10.328125 -15.046875 9.234375 -13.734375 C 8.148438 -12.429688 7.09375 -11.023438 6.0625 -9.515625 C 5.03125 -8.003906 4.164062 -6.566406 3.46875 -5.203125 C 2.78125 -3.835938 2.4375 -2.738281 2.4375 -1.90625 C 2.4375 -1.1875 2.675781 -0.828125 3.15625 -0.828125 C 3.425781 -0.828125 3.859375 -0.9375 4.453125 -1.15625 C 5.054688 -1.375 5.851562 -1.828125 6.84375 -2.515625 C 7.832031 -3.210938 9.019531 -4.296875 10.40625 -5.765625 C 10.644531 -6.003906 11.28125 -6.71875 12.3125 -7.90625 C 13.34375 -9.09375 14.726562 -10.800781 16.46875 -13.03125 C 19.5625 -16.875 21.582031 -18.796875 22.53125 -18.796875 C 23.84375 -18.796875 24.554688 -18.257812 24.671875 -17.1875 C 24.753906 -16.832031 23.925781 -15.660156 22.1875 -13.671875 C 19.925781 -10.941406 18.378906 -8.984375 17.546875 -7.796875 C 15.992188 -5.535156 15.21875 -3.769531 15.21875 -2.5 C 15.21875 -1.625 15.515625 -1.1875 16.109375 -1.1875 C 16.710938 -1.1875 17.476562 -1.472656 18.40625 -2.046875 C 19.332031 -2.617188 20.3125 -3.351562 21.34375 -4.25 C 22.375 -5.144531 23.375 -6.078125 24.34375 -7.046875 C 25.320312 -8.015625 26.164062 -8.914062 26.875 -9.75 C 27.113281 -10.03125 27.351562 -10.171875 27.59375 -10.171875 C 27.832031 -10.171875 27.953125 -10.050781 27.953125 -9.8125 C 27.953125 -9.726562 27.929688 -9.609375 27.890625 -9.453125 C 27.847656 -9.296875 27.726562 -9.117188 27.53125 -8.921875 C 26.894531 -8.203125 26.082031 -7.316406 25.09375 -6.265625 C 24.101562 -5.222656 23.03125 -4.1875 21.875 -3.15625 C 20.726562 -2.125 19.617188 -1.269531 18.546875 -0.59375 C 17.484375 0.0820312 16.570312 0.421875 15.8125 0.421875 C 14.90625 0.421875 14.113281 0.171875 13.4375 -0.328125 C 12.757812 -0.828125 12.421875 -1.507812 12.421875 -2.375 C 12.421875 -3.25 12.5625 -4.128906 12.84375 -5.015625 C 13.125 -5.910156 13.34375 -6.675781 13.5 -7.3125 C 11.632812 -5.132812 10 -3.46875 8.59375 -2.3125 C 7.1875 -1.164062 6.003906 -0.382812 5.046875 0.03125 C 4.097656 0.445312 3.347656 0.65625 2.796875 0.65625 Z M 2.796875 0.65625 "/></g></g></g><g fill="#f16f81" fill-opacity="1"><g transform="translate(107.087515, 49.55045)"><g><path d="M 4.515625 -16 C 4.398438 -16.070312 4.34375 -16.148438 4.34375 -16.234375 C 4.34375 -16.390625 4.894531 -17.160156 6 -18.546875 C 7.15625 -20.015625 7.671875 -21.144531 7.546875 -21.9375 C 7.515625 -22.375 7.238281 -22.757812 6.71875 -23.09375 C 6.207031 -23.4375 5.953125 -23.785156 5.953125 -24.140625 C 5.953125 -25.328125 6.523438 -25.921875 7.671875 -25.921875 C 8.222656 -25.921875 8.773438 -25.734375 9.328125 -25.359375 C 9.890625 -24.984375 10.171875 -24.519531 10.171875 -23.96875 C 10.171875 -22.257812 9.359375 -20.414062 7.734375 -18.4375 C 6.222656 -16.65625 5.148438 -15.84375 4.515625 -16 Z M 4.515625 -16 "/></g></g></g><g fill="#f16f81" fill-opacity="1"><g transform="translate(114.817994, 49.55045)"><g><path d="M 12.125 0.296875 C 10.425781 0.296875 9.257812 -0.144531 8.625 -1.03125 C 7.988281 -1.925781 7.671875 -3.128906 7.671875 -4.640625 C 7.671875 -6.304688 8.1875 -8.285156 9.21875 -10.578125 C 9.613281 -11.492188 10.03125 -12.316406 10.46875 -13.046875 C 10.90625 -13.785156 11.359375 -14.472656 11.828125 -15.109375 C 11.671875 -15.066406 11.53125 -15.046875 11.40625 -15.046875 C 11.289062 -15.046875 11.175781 -15.046875 11.0625 -15.046875 C 10.113281 -15.046875 9.320312 -15.71875 8.6875 -17.0625 L 4.28125 -11.359375 C 1.9375 -8.304688 0.507812 -6.78125 0 -6.78125 C -0.195312 -6.78125 -0.296875 -6.859375 -0.296875 -7.015625 C -0.296875 -7.210938 -0.195312 -7.472656 0 -7.796875 C 0.113281 -8.023438 0.351562 -8.335938 0.71875 -8.734375 C 2.21875 -10.484375 3.601562 -12.207031 4.875 -13.90625 C 6.144531 -15.613281 7.195312 -17.28125 8.03125 -18.90625 C 8.9375 -22.351562 10.085938 -24.078125 11.484375 -24.078125 C 12.390625 -24.078125 12.84375 -23.664062 12.84375 -22.84375 C 12.84375 -22.082031 12.347656 -21.085938 11.359375 -19.859375 C 10.410156 -18.628906 9.9375 -17.992188 9.9375 -17.953125 C 9.9375 -17.117188 10.550781 -16.703125 11.78125 -16.703125 C 12.488281 -16.703125 13.28125 -16.960938 14.15625 -17.484375 L 15.703125 -18.4375 C 15.773438 -18.476562 15.894531 -18.5 16.0625 -18.5 C 16.53125 -18.5 16.941406 -18.300781 17.296875 -17.90625 C 17.660156 -17.507812 17.78125 -17.148438 17.65625 -16.828125 L 13.5625 -11.65625 C 11.019531 -8.40625 9.75 -5.789062 9.75 -3.8125 C 9.75 -2.019531 10.625 -1.125 12.375 -1.125 C 13.5625 -1.125 14.835938 -1.476562 16.203125 -2.1875 C 17.566406 -2.90625 18.894531 -3.789062 20.1875 -4.84375 C 21.476562 -5.894531 22.5625 -6.914062 23.4375 -7.90625 L 24.859375 -9.578125 C 24.941406 -9.648438 25.039062 -9.742188 25.15625 -9.859375 C 25.269531 -9.984375 25.367188 -10.046875 25.453125 -10.046875 C 25.734375 -10.046875 25.875 -9.910156 25.875 -9.640625 C 25.875 -9.554688 25.832031 -9.414062 25.75 -9.21875 C 25.664062 -9.019531 25.523438 -8.800781 25.328125 -8.5625 L 23.4375 -6.421875 C 22.519531 -5.390625 21.394531 -4.347656 20.0625 -3.296875 C 18.738281 -2.242188 17.375 -1.378906 15.96875 -0.703125 C 14.5625 -0.0351562 13.28125 0.296875 12.125 0.296875 Z M 12.125 0.296875 "/></g></g></g><g fill="#f16f81" fill-opacity="1"><g transform="translate(138.247303, 49.55045)"><g><path d="M 3.03125 0.765625 C 1.757812 0.765625 0.609375 0.359375 -0.421875 -0.453125 C -1.453125 -1.265625 -1.96875 -2.34375 -1.96875 -3.6875 C -1.96875 -6.5 -0.238281 -9.710938 3.21875 -13.328125 C 6.738281 -16.972656 9.890625 -18.796875 12.671875 -18.796875 C 13.578125 -18.796875 14.316406 -18.546875 14.890625 -18.046875 C 15.472656 -17.554688 15.765625 -16.953125 15.765625 -16.234375 C 15.765625 -14.015625 14 -11.832031 10.46875 -9.6875 C 7.332031 -7.789062 4.695312 -6.84375 2.5625 -6.84375 C 2.238281 -6.84375 1.957031 -6.878906 1.71875 -6.953125 C 1.125 -5.890625 0.828125 -4.757812 0.828125 -3.5625 C 0.828125 -1.5 1.800781 -0.46875 3.75 -0.46875 C 5.726562 -0.46875 8.285156 -1.796875 11.421875 -4.453125 C 13.835938 -6.398438 15.898438 -8.460938 17.609375 -10.640625 C 17.960938 -11.117188 18.273438 -11.359375 18.546875 -11.359375 C 18.785156 -11.359375 18.90625 -11.238281 18.90625 -11 C 18.90625 -10.757812 18.75 -10.421875 18.4375 -9.984375 C 17.320312 -8.523438 16.128906 -7.179688 14.859375 -5.953125 C 13.597656 -4.722656 12.234375 -3.59375 10.765625 -2.5625 C 7.710938 -0.34375 5.132812 0.765625 3.03125 0.765625 Z M 3.390625 -8.140625 C 4.898438 -8.140625 6.863281 -8.894531 9.28125 -10.40625 C 10.070312 -10.957031 10.851562 -11.582031 11.625 -12.28125 C 12.394531 -12.976562 13.023438 -13.679688 13.515625 -14.390625 C 14.015625 -15.109375 14.265625 -15.742188 14.265625 -16.296875 C 14.265625 -16.804688 13.851562 -17.0625 13.03125 -17.0625 C 11.832031 -17.0625 10.164062 -16.171875 8.03125 -14.390625 C 7 -13.515625 6.003906 -12.5625 5.046875 -11.53125 C 4.097656 -10.5 3.285156 -9.410156 2.609375 -8.265625 C 2.847656 -8.179688 3.109375 -8.140625 3.390625 -8.140625 Z M 3.390625 -8.140625 "/></g></g></g><g fill="#f16f81" fill-opacity="1"><g transform="translate(0.266765, 113.565053)"><g><path d="M 10.53125 4.109375 C 4.34375 4.109375 1.25 0.457031 1.25 -6.84375 C 1.25 -12.863281 2.851562 -17.71875 6.0625 -21.40625 C 8.757812 -24.582031 11.851562 -26.171875 15.34375 -26.171875 C 17.28125 -26.171875 18.8125 -25.65625 19.9375 -24.625 C 21.070312 -23.59375 21.640625 -22.101562 21.640625 -20.15625 C 21.640625 -17.0625 20.453125 -13.929688 18.078125 -10.765625 C 15.617188 -7.472656 13.117188 -5.828125 10.578125 -5.828125 C 9.117188 -5.828125 8.039062 -6.257812 7.34375 -7.125 C 6.644531 -8 6.296875 -9.050781 6.296875 -10.28125 C 6.296875 -11.082031 6.457031 -11.957031 6.78125 -12.90625 C 7.21875 -14.050781 7.671875 -14.625 8.140625 -14.625 C 8.503906 -14.625 8.6875 -14.445312 8.6875 -14.09375 C 8.6875 -13.894531 8.503906 -13.378906 8.140625 -12.546875 C 7.867188 -11.953125 7.734375 -11.335938 7.734375 -10.703125 C 7.734375 -9.867188 8 -9.203125 8.53125 -8.703125 C 9.070312 -8.210938 9.773438 -7.96875 10.640625 -7.96875 C 12.984375 -7.96875 15.1875 -9.453125 17.25 -12.421875 C 19.1875 -15.203125 20.15625 -17.957031 20.15625 -20.6875 C 20.15625 -22.125 19.804688 -23.226562 19.109375 -24 C 18.421875 -24.769531 17.484375 -25.15625 16.296875 -25.15625 C 13.484375 -25.15625 10.664062 -23.210938 7.84375 -19.328125 C 4.957031 -15.160156 3.59375 -10.582031 3.75 -5.59375 C 3.820312 -3.375 4.421875 -1.492188 5.546875 0.046875 C 6.679688 1.597656 8.203125 2.375 10.109375 2.375 C 15.460938 2.375 22.300781 -4.738281 30.625 -18.96875 C 26.257812 -20.28125 24.078125 -22.859375 24.078125 -26.703125 C 24.078125 -29.273438 24.769531 -31.601562 26.15625 -33.6875 C 27.550781 -35.769531 29.457031 -37.523438 31.875 -38.953125 C 35.164062 -40.859375 38.378906 -41.8125 41.515625 -41.8125 C 43.210938 -41.8125 44.863281 -41.601562 46.46875 -41.1875 C 48.082031 -40.769531 49.421875 -40.113281 50.484375 -39.21875 C 51.554688 -38.320312 52.09375 -37.160156 52.09375 -35.734375 C 52.09375 -35.265625 51.984375 -34.8125 51.765625 -34.375 C 51.546875 -33.9375 51.316406 -33.71875 51.078125 -33.71875 C 51.117188 -33.71875 50.941406 -33.84375 50.546875 -34.09375 C 50.148438 -34.351562 49.710938 -34.484375 49.234375 -34.484375 C 45.867188 -34.484375 41.253906 -29.472656 35.390625 -19.453125 C 35.546875 -19.410156 35.703125 -19.390625 35.859375 -19.390625 C 36.015625 -19.390625 36.171875 -19.390625 36.328125 -19.390625 C 37.328125 -19.390625 38.289062 -19.566406 39.21875 -19.921875 C 40.144531 -20.273438 40.914062 -20.769531 41.53125 -21.40625 C 42.144531 -22.039062 42.453125 -22.753906 42.453125 -23.546875 C 42.453125 -23.867188 42.382812 -24.195312 42.25 -24.53125 C 42.113281 -24.863281 42.046875 -25.070312 42.046875 -25.15625 C 42.046875 -25.46875 42.203125 -25.625 42.515625 -25.625 C 42.679688 -25.625 42.84375 -25.566406 43 -25.453125 C 43.90625 -24.773438 44.359375 -23.941406 44.359375 -22.953125 C 44.359375 -21.960938 43.984375 -21.085938 43.234375 -20.328125 C 42.484375 -19.578125 41.519531 -18.992188 40.34375 -18.578125 C 39.175781 -18.160156 38 -17.953125 36.8125 -17.953125 C 36.132812 -17.953125 35.460938 -18.015625 34.796875 -18.140625 C 32.054688 -13.097656 28.722656 -8.457031 24.796875 -4.21875 C 19.566406 1.332031 14.8125 4.109375 10.53125 4.109375 Z M 31.640625 -20.453125 C 33.816406 -24.023438 36.472656 -27.414062 39.609375 -30.625 C 43.367188 -34.507812 46.398438 -36.453125 48.703125 -36.453125 C 49.296875 -36.453125 49.8125 -36.3125 50.25 -36.03125 C 50.207031 -36.789062 49.847656 -37.476562 49.171875 -38.09375 C 48.503906 -38.707031 47.703125 -39.191406 46.765625 -39.546875 C 45.835938 -39.898438 44.957031 -40.097656 44.125 -40.140625 C 41.507812 -40.253906 38.734375 -39.660156 35.796875 -38.359375 C 33.296875 -37.242188 31.242188 -35.566406 29.640625 -33.328125 C 28.035156 -31.085938 27.234375 -28.503906 27.234375 -25.578125 C 27.234375 -22.722656 28.703125 -21.015625 31.640625 -20.453125 Z M 31.640625 -20.453125 "/></g></g></g><g fill="#f16f81" fill-opacity="1"><g transform="translate(34.518751, 113.565053)"><g><path d="M 15.171875 0.125 C 14.097656 0.125 13.34375 -0.179688 12.90625 -0.796875 C 12.46875 -1.410156 12.25 -2.175781 12.25 -3.09375 C 12.25 -5.394531 13.039062 -7.851562 14.625 -10.46875 L 18.4375 -16.65625 C 15.738281 -14.664062 13.0625 -12.1875 10.40625 -9.21875 C 9.695312 -8.425781 8.894531 -7.492188 8 -6.421875 C 7.101562 -5.347656 6.125 -4.117188 5.0625 -2.734375 C 3.625 -0.867188 2.769531 0.0625 2.5 0.0625 C 1.945312 0.0625 1.488281 -0.179688 1.125 -0.671875 C 0.769531 -1.171875 0.59375 -1.617188 0.59375 -2.015625 C 0.59375 -2.335938 0.691406 -2.925781 0.890625 -3.78125 C 1.085938 -4.632812 1.328125 -5.375 1.609375 -6 C 1.878906 -6.675781 2.160156 -7.34375 2.453125 -8 C 2.753906 -8.65625 3.046875 -9.300781 3.328125 -9.9375 L -0.234375 -6.1875 C -0.316406 -6.101562 -0.554688 -5.863281 -0.953125 -5.46875 C -1.347656 -5.070312 -1.664062 -4.875 -1.90625 -4.875 C -2.101562 -4.875 -2.203125 -5.015625 -2.203125 -5.296875 C -2.203125 -5.367188 -2.171875 -5.472656 -2.109375 -5.609375 C -2.046875 -5.753906 -1.914062 -5.925781 -1.71875 -6.125 C -1.125 -6.71875 -0.507812 -7.351562 0.125 -8.03125 C 0.757812 -8.707031 1.410156 -9.476562 2.078125 -10.34375 C 2.429688 -10.78125 2.960938 -11.441406 3.671875 -12.328125 C 4.390625 -13.222656 5.175781 -14.1875 6.03125 -15.21875 C 6.882812 -16.25 7.6875 -17.203125 8.4375 -18.078125 C 8.632812 -18.359375 8.851562 -18.546875 9.09375 -18.640625 C 9.332031 -18.742188 9.492188 -18.796875 9.578125 -18.796875 C 10.648438 -18.796875 11.1875 -18.378906 11.1875 -17.546875 C 11.1875 -17.304688 11.125 -17.066406 11 -16.828125 C 7.4375 -11.910156 5.296875 -8.164062 4.578125 -5.59375 C 9.179688 -10.1875 12.878906 -13.644531 15.671875 -15.96875 C 18.460938 -18.289062 20.453125 -19.453125 21.640625 -19.453125 C 22.273438 -19.453125 22.757812 -19.351562 23.09375 -19.15625 C 23.4375 -18.957031 23.609375 -18.578125 23.609375 -18.015625 C 23.609375 -17.816406 23.585938 -17.660156 23.546875 -17.546875 C 23.429688 -17.265625 22.617188 -16.15625 21.109375 -14.21875 C 20.203125 -13.101562 19.398438 -12.085938 18.703125 -11.171875 C 18.003906 -10.265625 17.441406 -9.472656 17.015625 -8.796875 C 16.296875 -7.691406 15.753906 -6.648438 15.390625 -5.671875 C 15.035156 -4.703125 14.859375 -3.882812 14.859375 -3.21875 C 14.859375 -2.9375 14.898438 -2.597656 14.984375 -2.203125 C 15.066406 -1.804688 15.304688 -1.609375 15.703125 -1.609375 C 16.609375 -1.609375 18.035156 -2.398438 19.984375 -3.984375 C 20.890625 -4.773438 21.738281 -5.578125 22.53125 -6.390625 C 23.332031 -7.203125 24.085938 -8.003906 24.796875 -8.796875 C 24.953125 -8.960938 25.207031 -9.269531 25.5625 -9.71875 C 25.925781 -10.175781 26.144531 -10.40625 26.21875 -10.40625 C 26.382812 -10.40625 26.46875 -10.25 26.46875 -9.9375 C 26.46875 -9.769531 26.375 -9.5 26.1875 -9.125 C 26.007812 -8.75 25.820312 -8.460938 25.625 -8.265625 C 25.195312 -7.753906 24.554688 -7.039062 23.703125 -6.125 C 22.847656 -5.207031 21.894531 -4.273438 20.84375 -3.328125 C 19.789062 -2.378906 18.769531 -1.566406 17.78125 -0.890625 C 16.789062 -0.210938 15.921875 0.125 15.171875 0.125 Z M 15.171875 0.125 "/></g></g></g><g fill="#f16f81" fill-opacity="1"><g transform="translate(58.483244, 113.565053)"><g><path d="M 1.96875 0.171875 C 1.726562 0.171875 1.390625 0.0664062 0.953125 -0.140625 C 0.515625 -0.359375 0.117188 -0.617188 -0.234375 -0.921875 C -0.585938 -1.222656 -0.785156 -1.488281 -0.828125 -1.71875 C -0.867188 -2.039062 -0.660156 -2.941406 -0.203125 -4.421875 C 0.242188 -5.910156 0.96875 -7.945312 1.96875 -10.53125 C 2.957031 -13.144531 3.785156 -15.164062 4.453125 -16.59375 C 5.128906 -18.019531 5.628906 -18.875 5.953125 -19.15625 C 6.109375 -19.3125 6.320312 -19.390625 6.59375 -19.390625 C 7.03125 -19.390625 7.445312 -19.195312 7.84375 -18.8125 C 8.238281 -18.4375 8.457031 -17.992188 8.5 -17.484375 C 8.5 -17.441406 7.507812 -15.101562 5.53125 -10.46875 C 3.582031 -5.988281 2.671875 -3.3125 2.796875 -2.4375 C 4.535156 -2.988281 7.445312 -4.953125 11.53125 -8.328125 C 13.988281 -10.390625 15.765625 -12.257812 16.859375 -13.9375 C 17.953125 -15.625 18.5 -17.144531 18.5 -18.5 C 18.5 -19.289062 18.304688 -20.007812 17.921875 -20.65625 C 17.546875 -21.3125 16.863281 -21.859375 15.875 -22.296875 C 15.601562 -22.421875 15.46875 -22.601562 15.46875 -22.84375 C 15.46875 -23.195312 15.679688 -23.375 16.109375 -23.375 C 17.265625 -23.375 18.265625 -22.992188 19.109375 -22.234375 C 19.960938 -21.484375 20.390625 -20.359375 20.390625 -18.859375 C 20.390625 -17.265625 19.71875 -15.46875 18.375 -13.46875 C 17.03125 -11.46875 15.109375 -9.335938 12.609375 -7.078125 C 10.429688 -5.128906 8.457031 -3.539062 6.6875 -2.3125 C 4.925781 -1.082031 3.351562 -0.253906 1.96875 0.171875 Z M 1.96875 0.171875 "/></g></g></g><g fill="#f16f81" fill-opacity="1"><g transform="translate(76.382289, 113.565053)"><g><path d="M 13.140625 -20.453125 C 12.460938 -20.453125 11.875 -20.671875 11.375 -21.109375 C 10.882812 -21.546875 10.640625 -22.039062 10.640625 -22.59375 C 10.640625 -23.707031 11.394531 -24.265625 12.90625 -24.265625 C 13.457031 -24.265625 14.007812 -24.078125 14.5625 -23.703125 C 15.125 -23.328125 15.40625 -22.859375 15.40625 -22.296875 C 15.40625 -21.828125 15.144531 -21.398438 14.625 -21.015625 C 14.113281 -20.640625 13.617188 -20.453125 13.140625 -20.453125 Z M 2.140625 0.65625 C 1.265625 0.65625 0.539062 0.367188 -0.03125 -0.203125 C -0.601562 -0.785156 -0.890625 -1.804688 -0.890625 -3.265625 C -0.890625 -4.097656 -0.703125 -5.0625 -0.328125 -6.15625 C 0.046875 -7.25 0.519531 -8.347656 1.09375 -9.453125 C 1.675781 -10.566406 2.242188 -11.554688 2.796875 -12.421875 C 5.015625 -16.035156 6.835938 -17.863281 8.265625 -17.90625 C 8.617188 -17.90625 9.050781 -17.753906 9.5625 -17.453125 C 10.082031 -17.160156 10.34375 -16.832031 10.34375 -16.46875 C 10.34375 -16.46875 8.835938 -14.523438 5.828125 -10.640625 C 2.859375 -6.796875 1.375 -4.0625 1.375 -2.4375 C 1.375 -1.164062 1.867188 -0.53125 2.859375 -0.53125 C 3.492188 -0.53125 4.316406 -0.796875 5.328125 -1.328125 C 6.335938 -1.867188 7.394531 -2.554688 8.5 -3.390625 C 9.613281 -4.222656 10.675781 -5.113281 11.6875 -6.0625 C 12.695312 -7.019531 13.519531 -7.894531 14.15625 -8.6875 C 14.550781 -9.195312 14.894531 -9.550781 15.1875 -9.75 C 15.488281 -9.945312 15.679688 -10.046875 15.765625 -10.046875 C 15.921875 -10.046875 16 -9.925781 16 -9.6875 C 16 -9.488281 15.769531 -9.09375 15.3125 -8.5 C 14.851562 -7.90625 14.226562 -7.210938 13.4375 -6.421875 C 12.488281 -5.472656 11.4375 -4.441406 10.28125 -3.328125 C 9.132812 -2.222656 7.882812 -1.28125 6.53125 -0.5 C 5.1875 0.269531 3.722656 0.65625 2.140625 0.65625 Z M 2.140625 0.65625 "/></g></g></g><g fill="#f16f81" fill-opacity="1"><g transform="translate(89.821437, 113.565053)"><g><path d="M 3.6875 0.359375 C 2.414062 0.359375 1.410156 0.0507812 0.671875 -0.5625 C -0.0546875 -1.175781 -0.421875 -2.273438 -0.421875 -3.859375 C -0.421875 -4.773438 -0.144531 -5.9375 0.40625 -7.34375 C 0.96875 -8.75 1.664062 -10.265625 2.5 -11.890625 C 3.332031 -13.515625 4.164062 -15.117188 5 -16.703125 C 4.476562 -16.585938 4.019531 -16.53125 3.625 -16.53125 C 2.4375 -16.53125 1.84375 -16.988281 1.84375 -17.90625 C 1.84375 -18.332031 2.007812 -18.664062 2.34375 -18.90625 C 2.6875 -19.144531 2.992188 -19.285156 3.265625 -19.328125 C 3.265625 -19.328125 3.3125 -19.328125 3.40625 -19.328125 C 3.507812 -19.328125 3.644531 -19.347656 3.8125 -19.390625 L 7.25 -19.390625 C 7.96875 -20.296875 8.703125 -21.265625 9.453125 -22.296875 C 10.523438 -23.648438 11.378906 -24.441406 12.015625 -24.671875 L 12.1875 -24.671875 C 12.46875 -24.671875 12.863281 -24.535156 13.375 -24.265625 C 14.007812 -23.910156 14.328125 -23.550781 14.328125 -23.1875 C 14.328125 -22.675781 13.378906 -21.347656 11.484375 -19.203125 C 11.835938 -19.171875 12.347656 -19.15625 13.015625 -19.15625 C 13.691406 -19.15625 14.523438 -19.15625 15.515625 -19.15625 C 15.992188 -19.15625 16.675781 -19.15625 17.5625 -19.15625 C 18.457031 -19.15625 19.390625 -19.160156 20.359375 -19.171875 C 21.335938 -19.191406 22.179688 -19.210938 22.890625 -19.234375 C 23.609375 -19.253906 24.003906 -19.265625 24.078125 -19.265625 C 24.203125 -19.222656 24.265625 -19.164062 24.265625 -19.09375 C 24.265625 -18.726562 21.925781 -18.25 17.25 -17.65625 C 14.59375 -17.300781 12.5625 -17.023438 11.15625 -16.828125 C 9.75 -16.628906 8.984375 -16.507812 8.859375 -16.46875 C 8.304688 -16 7.632812 -15.1875 6.84375 -14.03125 C 6.050781 -12.882812 5.253906 -11.597656 4.453125 -10.171875 C 3.660156 -8.742188 3 -7.382812 2.46875 -6.09375 C 1.9375 -4.800781 1.671875 -3.800781 1.671875 -3.09375 C 1.671875 -2.457031 1.90625 -1.929688 2.375 -1.515625 C 2.851562 -1.097656 3.628906 -0.890625 4.703125 -0.890625 C 5.410156 -0.890625 6.257812 -1.046875 7.25 -1.359375 C 8.238281 -1.679688 9.179688 -2.050781 10.078125 -2.46875 C 10.972656 -2.882812 11.617188 -3.210938 12.015625 -3.453125 C 13.046875 -4.085938 14.1875 -4.925781 15.4375 -5.96875 C 16.6875 -7.019531 17.925781 -8.222656 19.15625 -9.578125 C 19.707031 -10.128906 20.082031 -10.40625 20.28125 -10.40625 C 20.394531 -10.40625 20.453125 -10.328125 20.453125 -10.171875 C 20.453125 -9.847656 20.15625 -9.332031 19.5625 -8.625 C 18.613281 -7.46875 17.550781 -6.363281 16.375 -5.3125 C 15.207031 -4.269531 13.910156 -3.3125 12.484375 -2.4375 C 10.859375 -1.445312 9.300781 -0.734375 7.8125 -0.296875 C 6.332031 0.140625 4.957031 0.359375 3.6875 0.359375 Z M 3.6875 0.359375 "/></g></g></g><g fill="#f16f81" fill-opacity="1"><g transform="translate(107.482619, 113.565053)"><g><path d="M 3.03125 0.765625 C 1.757812 0.765625 0.609375 0.359375 -0.421875 -0.453125 C -1.453125 -1.265625 -1.96875 -2.34375 -1.96875 -3.6875 C -1.96875 -6.5 -0.238281 -9.710938 3.21875 -13.328125 C 6.738281 -16.972656 9.890625 -18.796875 12.671875 -18.796875 C 13.578125 -18.796875 14.316406 -18.546875 14.890625 -18.046875 C 15.472656 -17.554688 15.765625 -16.953125 15.765625 -16.234375 C 15.765625 -14.015625 14 -11.832031 10.46875 -9.6875 C 7.332031 -7.789062 4.695312 -6.84375 2.5625 -6.84375 C 2.238281 -6.84375 1.957031 -6.878906 1.71875 -6.953125 C 1.125 -5.890625 0.828125 -4.757812 0.828125 -3.5625 C 0.828125 -1.5 1.800781 -0.46875 3.75 -0.46875 C 5.726562 -0.46875 8.285156 -1.796875 11.421875 -4.453125 C 13.835938 -6.398438 15.898438 -8.460938 17.609375 -10.640625 C 17.960938 -11.117188 18.273438 -11.359375 18.546875 -11.359375 C 18.785156 -11.359375 18.90625 -11.238281 18.90625 -11 C 18.90625 -10.757812 18.75 -10.421875 18.4375 -9.984375 C 17.320312 -8.523438 16.128906 -7.179688 14.859375 -5.953125 C 13.597656 -4.722656 12.234375 -3.59375 10.765625 -2.5625 C 7.710938 -0.34375 5.132812 0.765625 3.03125 0.765625 Z M 3.390625 -8.140625 C 4.898438 -8.140625 6.863281 -8.894531 9.28125 -10.40625 C 10.070312 -10.957031 10.851562 -11.582031 11.625 -12.28125 C 12.394531 -12.976562 13.023438 -13.679688 13.515625 -14.390625 C 14.015625 -15.109375 14.265625 -15.742188 14.265625 -16.296875 C 14.265625 -16.804688 13.851562 -17.0625 13.03125 -17.0625 C 11.832031 -17.0625 10.164062 -16.171875 8.03125 -14.390625 C 7 -13.515625 6.003906 -12.5625 5.046875 -11.53125 C 4.097656 -10.5 3.285156 -9.410156 2.609375 -8.265625 C 2.847656 -8.179688 3.109375 -8.140625 3.390625 -8.140625 Z M 3.390625 -8.140625 "/></g></g></g><g fill="#f16f81" fill-opacity="1"><g transform="translate(122.765192, 113.565053)"><g><path d="M 3.984375 0.296875 C 2.796875 0.296875 1.785156 -0.03125 0.953125 -0.6875 C 0.117188 -1.34375 -0.351562 -2.144531 -0.46875 -3.09375 C -0.632812 -4.363281 -0.453125 -5.640625 0.078125 -6.921875 C 0.617188 -8.210938 1.351562 -9.453125 2.28125 -10.640625 C 3.21875 -11.828125 4.222656 -12.9375 5.296875 -13.96875 C 9.492188 -18.175781 13.28125 -20.28125 16.65625 -20.28125 C 17.800781 -20.28125 18.570312 -19.984375 18.96875 -19.390625 C 19.125 -19.191406 19.300781 -18.734375 19.5 -18.015625 C 23.945312 -25.234375 27.039062 -28.84375 28.78125 -28.84375 C 29.175781 -28.84375 29.59375 -28.742188 30.03125 -28.546875 C 30.46875 -28.347656 30.6875 -28.085938 30.6875 -27.765625 C 30.6875 -27.566406 30.585938 -27.3125 30.390625 -27 C 29.203125 -25.53125 28.007812 -24.070312 26.8125 -22.625 C 25.625 -21.175781 24.457031 -19.71875 23.3125 -18.25 C 21.363281 -15.789062 19.796875 -13.648438 18.609375 -11.828125 C 17.421875 -10.003906 16.570312 -8.460938 16.0625 -7.203125 C 15.894531 -6.796875 15.742188 -6.304688 15.609375 -5.734375 C 15.472656 -5.160156 15.40625 -4.578125 15.40625 -3.984375 C 15.40625 -3.234375 15.5625 -2.578125 15.875 -2.015625 C 16.195312 -1.460938 16.773438 -1.1875 17.609375 -1.1875 C 18.910156 -1.1875 20.515625 -1.820312 22.421875 -3.09375 C 24.328125 -4.363281 26.546875 -6.445312 29.078125 -9.34375 C 29.234375 -9.5 29.378906 -9.632812 29.515625 -9.75 C 29.660156 -9.875 29.8125 -9.953125 29.96875 -9.984375 C 30.320312 -10.066406 30.5 -9.988281 30.5 -9.75 C 30.5 -9.632812 30.382812 -9.414062 30.15625 -9.09375 C 28.925781 -7.625 27.554688 -6.175781 26.046875 -4.75 C 24.535156 -3.320312 23 -2.144531 21.4375 -1.21875 C 19.875 -0.289062 18.414062 0.171875 17.0625 0.171875 C 15.71875 0.171875 14.765625 -0.28125 14.203125 -1.1875 C 13.648438 -2.101562 13.375 -3.132812 13.375 -4.28125 C 13.375 -5.46875 13.59375 -6.554688 14.03125 -7.546875 L 9.21875 -2.734375 C 8.144531 -1.660156 7.160156 -0.882812 6.265625 -0.40625 C 5.378906 0.0625 4.617188 0.296875 3.984375 0.296875 Z M 3.453125 -1.015625 C 5.148438 -1.015625 7.984375 -3.351562 11.953125 -8.03125 C 12.148438 -8.269531 12.84375 -9.148438 14.03125 -10.671875 C 15.21875 -12.203125 16.90625 -14.429688 19.09375 -17.359375 C 18.8125 -17.835938 18.332031 -18.078125 17.65625 -18.078125 C 15.195312 -18.078125 11.910156 -16.132812 7.796875 -12.25 C 3.910156 -8.644531 1.96875 -5.613281 1.96875 -3.15625 C 1.96875 -1.726562 2.460938 -1.015625 3.453125 -1.015625 Z M 3.453125 -1.015625 "/></g></g></g><g fill="#f16f81" fill-opacity="1"><g transform="translate(150.535462, 113.565053)"><g><path d="M 8.265625 -6.953125 C 7.984375 -6.953125 7.90625 -7.332031 8.03125 -8.09375 C 8.5 -10.820312 10.34375 -14.585938 13.5625 -19.390625 C 16.769531 -24.222656 18.945312 -26.640625 20.09375 -26.640625 C 20.570312 -26.640625 21.050781 -26.5625 21.53125 -26.40625 C 22.195312 -26.207031 22.53125 -25.945312 22.53125 -25.625 C 22.53125 -25.507812 22.453125 -25.375 22.296875 -25.21875 C 20.628906 -23.507812 18.191406 -20.535156 14.984375 -16.296875 C 13.398438 -14.191406 12.148438 -12.472656 11.234375 -11.140625 C 10.328125 -9.816406 9.753906 -8.878906 9.515625 -8.328125 C 9.078125 -7.410156 8.660156 -6.953125 8.265625 -6.953125 Z M 7.078125 -0.125 C 6.398438 -0.125 5.8125 -0.335938 5.3125 -0.765625 C 4.820312 -1.203125 4.578125 -1.703125 4.578125 -2.265625 C 4.578125 -3.367188 5.347656 -3.921875 6.890625 -3.921875 C 7.453125 -3.921875 8 -3.734375 8.53125 -3.359375 C 9.070312 -2.984375 9.34375 -2.519531 9.34375 -1.96875 C 9.34375 -1.488281 9.082031 -1.0625 8.5625 -0.6875 C 8.050781 -0.3125 7.554688 -0.125 7.078125 -0.125 Z M 7.078125 -0.125 "/></g></g></g></g></g></svg>